<svg width="192" height="287" viewBox="0 0 192 287" fill="none" xmlns="http://www.w3.org/2000/svg">
    <g clip-path="url(#clip0_7564_47592)">
        <path d="M0 16C0 7.16344 7.16344 0 16 0H176C184.837 0 192 7.16344 192 16V347H0V16Z" fill="#19233C" />
        <path fill-rule="evenodd" clip-rule="evenodd"
            d="M24.2795 32.4031C27.8886 36.0122 27.8886 41.8638 24.2795 45.4729C20.6704 49.082 14.8189 49.082 11.2098 45.4729C7.60065 41.8637 7.60065 36.0122 11.2098 32.4031C14.8189 28.794 20.6704 28.794 24.2795 32.4031Z"
            fill="#F5A054" />
        <path
            d="M13.8525 38.6422C13.8525 36.28 15.638 34.4834 18.1666 34.4834C19.1869 34.4834 20.0297 34.7717 20.6286 35.1266V36.6016C19.9742 36.1025 19.087 35.7588 18.1777 35.7588C16.4254 35.7588 15.261 37.0341 15.261 38.6311C15.261 40.1837 16.3589 41.5034 18.1887 41.5034C18.6767 41.5034 19.1425 41.4036 19.4974 41.2261V39.6846H17.9004V38.4869H20.8836V42.0135C20.1628 42.4571 19.1425 42.7566 18.1222 42.7566C15.6491 42.7566 13.8525 41.0265 13.8525 38.6422Z"
            fill="white" />
        <path
            d="M32.1295 36.9453V31.2357H33.131V33.5384H35.9149V31.2357H36.9164V36.9453H35.9149V34.4296H33.131V36.9453H32.1295ZM37.8224 36.9453V33.0653H38.7767V36.9453H37.8224ZM37.7041 31.7798C37.7041 31.4565 37.9723 31.1883 38.3035 31.1883C38.6268 31.1883 38.895 31.4565 38.895 31.7798C38.895 32.1032 38.6268 32.3713 38.2956 32.3713C37.9723 32.3713 37.7041 32.1032 37.7041 31.7798ZM41.0552 34.1063C41.0552 32.4265 42.3249 31.1489 44.123 31.1489C44.8485 31.1489 45.4479 31.354 45.8737 31.6063V32.6552C45.4085 32.3003 44.7776 32.0558 44.1309 32.0558C42.8849 32.0558 42.0568 32.9628 42.0568 34.0984C42.0568 35.2024 42.8375 36.1409 44.1388 36.1409C44.4858 36.1409 44.817 36.0699 45.0693 35.9438V34.8476H43.9337V33.9959H46.0551V36.5037C45.5425 36.8191 44.817 37.0321 44.0915 37.0321C42.3328 37.0321 41.0552 35.8018 41.0552 34.1063ZM46.8858 36.9453V33.0653H47.8321V33.6094L47.8479 33.6173C48.116 33.2388 48.5182 33.0258 48.9756 33.0258C49.0624 33.0258 49.1491 33.0337 49.2359 33.0574V33.9722C49.1412 33.9485 49.0466 33.9328 48.9204 33.9328C48.4709 33.9328 48.1081 34.1299 47.84 34.5085V36.9453H46.8858ZM53.1317 35.2655H50.3321C50.4504 35.9122 50.963 36.2434 51.6175 36.2434C52.1065 36.2434 52.5639 36.0621 52.9424 35.7939V36.6693C52.5797 36.898 52.0276 37.0321 51.5229 37.0321C50.2769 37.0321 49.3621 36.2277 49.3621 35.0132C49.3621 33.7829 50.2848 32.9785 51.3415 32.9785C52.3036 32.9785 53.1553 33.6331 53.1553 34.8791C53.1553 35.0053 53.1475 35.163 53.1317 35.2655ZM51.3336 33.7514C50.892 33.7514 50.4504 34.0195 50.3321 34.6031H52.2642C52.1932 34.0195 51.7674 33.7514 51.3336 33.7514ZM54.1207 38.4831V37.5368C54.4992 37.7813 54.9408 37.9311 55.3667 37.9311C56.0292 37.9311 56.4629 37.5604 56.4629 36.9059V36.6614L56.4471 36.6456C56.1948 36.827 55.8241 36.9295 55.4613 36.9295C54.4598 36.9295 53.6081 36.1646 53.6081 35.0132C53.6081 33.8933 54.3888 32.9785 55.6191 32.9785C56.0055 32.9785 56.3288 33.0653 56.597 33.1993L57.4171 33.0574V36.898C57.4171 38.073 56.6127 38.767 55.3983 38.767C54.9093 38.767 54.4519 38.6487 54.1207 38.4831ZM54.5702 34.9659C54.5702 35.6362 55.0039 36.133 55.6664 36.133C55.9503 36.133 56.2579 36.0384 56.4629 35.8886V34.0116C56.2579 33.8933 55.9582 33.8066 55.6664 33.8066C54.9724 33.8066 54.5702 34.335 54.5702 34.9659ZM58.1323 38.1046L58.5739 35.8018H59.4808L58.8105 38.1046H58.1323Z"
            fill="white" />
        <path
            d="M33.4849 45.9307V43.6742L31.5597 40.9347H32.3188L33.1675 42.1561C33.3814 42.4666 33.6022 42.784 33.8162 43.1084H33.83C34.037 42.7909 34.2509 42.4804 34.4786 42.1492L35.3205 40.9347H36.0519L34.1405 43.6673V45.9307H33.4849ZM35.4517 44.2331C35.4517 43.2326 36.2176 42.4597 37.2458 42.4597C38.274 42.4597 39.0399 43.2326 39.0399 44.2331C39.0399 45.2337 38.274 46.0066 37.2458 46.0066C36.2176 46.0066 35.4517 45.2337 35.4517 44.2331ZM36.0727 44.2331C36.0727 44.9163 36.5696 45.4407 37.2458 45.4407C37.922 45.4407 38.4189 44.9163 38.4189 44.2331C38.4189 43.55 37.922 43.0256 37.2458 43.0256C36.5696 43.0256 36.0727 43.55 36.0727 44.2331ZM40.0222 45.627C39.829 45.3993 39.7462 45.0957 39.7462 44.6127V42.5356H40.3672V44.4954C40.3672 44.868 40.4155 45.0612 40.5328 45.1992C40.6709 45.3717 40.871 45.4338 41.0711 45.4338C41.492 45.4338 41.8922 45.1578 42.1338 44.8542V42.5356H42.7548V45.9307H42.1338V45.5028L42.12 45.4959C41.8232 45.7927 41.4161 46.0066 40.9469 46.0066C40.6019 46.0066 40.2499 45.8893 40.0222 45.627ZM43.7057 45.9307V42.5356H44.3267V43.0325L44.3405 43.0394C44.5751 42.7081 44.9478 42.508 45.348 42.508C45.417 42.508 45.4929 42.5149 45.5688 42.5356V43.1498C45.486 43.1291 45.4032 43.1222 45.3273 43.1222C44.8649 43.1222 44.5406 43.3568 44.3267 43.7225V45.9307H43.7057ZM50.2568 45.1095V45.772C49.967 45.9307 49.5875 46.0066 49.2424 46.0066C48.166 46.0066 47.4 45.2613 47.4 44.2538C47.4 43.205 48.2281 42.4597 49.2838 42.4597C49.6358 42.4597 49.9601 42.5494 50.2016 42.6736V43.3154C49.9187 43.136 49.5875 43.0256 49.2562 43.0256C48.5179 43.0256 48.028 43.5707 48.028 44.2538C48.028 44.9508 48.5455 45.4407 49.2769 45.4407C49.6634 45.4407 50.0015 45.3096 50.2568 45.1095ZM51.0142 45.9307V42.5356H51.6353V43.0325L51.6491 43.0394C51.8837 42.7081 52.2563 42.508 52.6566 42.508C52.7256 42.508 52.8015 42.5149 52.8774 42.5356V43.1498C52.7946 43.1291 52.7118 43.1222 52.6358 43.1222C52.1735 43.1222 51.8492 43.3568 51.6353 43.7225V45.9307H51.0142ZM56.3101 44.4126H53.7156C53.8053 45.0819 54.3021 45.4476 54.9714 45.4476C55.4407 45.4476 55.834 45.2613 56.1445 45.0267V45.6891C55.8409 45.8824 55.3717 46.0066 54.93 46.0066C53.8812 46.0066 53.0945 45.3027 53.0945 44.2331C53.0945 43.1636 53.8743 42.4597 54.7851 42.4597C55.6132 42.4597 56.3308 43.0394 56.3308 44.102C56.3308 44.2055 56.3239 44.3298 56.3101 44.4126ZM54.7713 43.0187C54.3228 43.0187 53.8398 43.2947 53.7294 43.9226H55.7305C55.6753 43.2464 55.1785 43.0187 54.7713 43.0187ZM56.8586 44.2884C56.8586 43.2464 57.59 42.4597 58.6596 42.4597C58.9977 42.4597 59.253 42.5425 59.4738 42.6391L59.4876 42.6322V40.6587H60.1087V45.9307H59.4876V45.7236L59.4738 45.7167C59.2461 45.8755 58.9287 46.0066 58.5216 46.0066C57.6038 46.0066 56.8586 45.3372 56.8586 44.2884ZM57.4865 44.2538C57.4865 44.9301 57.9074 45.4545 58.6044 45.4545C58.9425 45.4545 59.2461 45.3303 59.4876 45.1647V43.2257C59.2599 43.1084 58.9563 43.0118 58.6527 43.0118C57.935 43.0118 57.4865 43.5569 57.4865 44.2538ZM60.9345 41.3695C60.9345 41.1279 61.1277 40.9347 61.3693 40.9347C61.6108 40.9347 61.804 41.1279 61.804 41.3695C61.804 41.611 61.6108 41.8042 61.3693 41.8042C61.1277 41.8042 60.9345 41.611 60.9345 41.3695ZM61.0587 45.9307V42.5356H61.6798V45.9307H61.0587ZM63.1499 45.6891C62.9843 45.5028 62.8946 45.2268 62.8946 44.7507V43.0946H62.2666V42.5356H62.8946V41.611L63.5156 41.5075V42.5356H64.5369V43.0946H63.5156V44.6334C63.5156 45.0543 63.5777 45.4407 64.0263 45.4407C64.2057 45.4407 64.4058 45.3786 64.5369 45.2958V45.8824C64.3989 45.9514 64.1574 46.0066 63.9228 46.0066C63.6743 46.0066 63.3707 45.9445 63.1499 45.6891ZM66.7096 45.9307V40.6587H67.3306V45.9307H66.7096ZM68.159 41.3695C68.159 41.1279 68.3522 40.9347 68.5937 40.9347C68.8353 40.9347 69.0285 41.1279 69.0285 41.3695C69.0285 41.611 68.8353 41.8042 68.5937 41.8042C68.3522 41.8042 68.159 41.611 68.159 41.3695ZM68.2832 45.9307V42.5356H68.9043V45.9307H68.2832ZM74.5285 45.9307V43.9226C74.5285 43.5983 74.4802 43.3913 74.356 43.2464C74.2248 43.0946 74.0178 43.0394 73.8384 43.0394C73.4451 43.0394 73.038 43.2947 72.8033 43.5707C72.8102 43.6466 72.8102 43.7294 72.8102 43.8122V45.9307H72.1892V43.9226C72.1892 43.5569 72.1478 43.3913 72.0305 43.2533C71.8925 43.0946 71.7062 43.0394 71.513 43.0394C71.1127 43.0394 70.7125 43.2878 70.4779 43.5707V45.9307H69.8568V42.5356H70.4779V42.9497L70.4917 42.9566C70.7746 42.6736 71.1748 42.4597 71.6441 42.4597C72.065 42.4597 72.479 42.6391 72.686 43.0463C73.0932 42.6598 73.5072 42.4597 73.9764 42.4597C74.3422 42.4597 74.6596 42.5839 74.8666 42.8186C75.0736 43.0463 75.1495 43.3499 75.1495 43.8122V45.9307H74.5285ZM75.9627 41.3695C75.9627 41.1279 76.156 40.9347 76.3975 40.9347C76.639 40.9347 76.8322 41.1279 76.8322 41.3695C76.8322 41.611 76.639 41.8042 76.3975 41.8042C76.156 41.8042 75.9627 41.611 75.9627 41.3695ZM76.087 45.9307V42.5356H76.708V45.9307H76.087ZM78.1781 45.6891C78.0125 45.5028 77.9228 45.2268 77.9228 44.7507V43.0946H77.2949V42.5356H77.9228V41.611L78.5438 41.5075V42.5356H79.5651V43.0946H78.5438V44.6334C78.5438 45.0543 78.6059 45.4407 79.0545 45.4407C79.2339 45.4407 79.434 45.3786 79.5651 45.2958V45.8824C79.4271 45.9514 79.1856 46.0066 78.951 46.0066C78.7026 46.0066 78.3989 45.9445 78.1781 45.6891ZM81.6136 41.3695C81.6136 41.1279 81.8068 40.9347 82.0483 40.9347C82.2898 40.9347 82.483 41.1279 82.483 41.3695C82.483 41.611 82.2898 41.8042 82.0483 41.8042C81.8068 41.8042 81.6136 41.611 81.6136 41.3695ZM81.7378 45.9307V42.5356H82.3588V45.9307H81.7378ZM83.2217 45.7375V45.0888C83.6081 45.3303 84.0912 45.4476 84.5121 45.4476C84.9813 45.4476 85.285 45.3096 85.285 44.9784C85.285 44.5713 84.795 44.5644 84.2706 44.4747C83.6219 44.3643 83.1113 44.171 83.1113 43.5017C83.1182 42.7978 83.7186 42.4597 84.5052 42.4597C84.9123 42.4597 85.3816 42.5494 85.7197 42.7288V43.3499C85.3402 43.1291 84.8709 43.0187 84.4776 43.0187C84.0429 43.0187 83.7393 43.1498 83.7393 43.4534C83.7393 43.8398 84.2223 43.8398 84.726 43.9295C85.3747 44.0399 85.9129 44.2193 85.9129 44.9232C85.9129 45.7098 85.2091 46.0066 84.4845 46.0066C84.0498 46.0066 83.5736 45.9169 83.2217 45.7375ZM87.9508 43.895V43.0946H88.2475C88.1785 42.8738 88.1233 42.6391 88.1233 42.3907C88.1233 41.4661 88.8755 40.8588 89.8898 40.8588C90.4281 40.8588 90.8766 41.0313 91.1457 41.2107V42.2734C90.7731 42.0043 90.3315 41.8456 89.9726 41.8456C89.531 41.8456 89.2205 42.0802 89.2205 42.4804C89.2205 42.6529 89.2757 42.8669 89.3447 43.0946H90.4833V43.895H89.5448C89.5586 43.9778 89.5655 44.0537 89.5655 44.1296C89.5655 44.5092 89.3999 44.7852 89.1791 44.9577V44.9715H91.3251V45.9307H87.9508V45.1302C88.3717 44.9232 88.5304 44.5782 88.5304 44.2055C88.5304 44.102 88.5166 43.9985 88.4959 43.895H87.9508ZM91.8347 45.6201V44.5644C92.297 44.8473 92.7732 45.0405 93.2217 45.0405C93.6909 45.0405 94.0014 44.8197 94.0014 44.4402C94.0014 44.0813 93.7323 43.8536 93.1389 43.8536H92.642V43.0256H93.1113C93.6495 43.0256 93.9048 42.7771 93.9048 42.4252C93.9048 42.0457 93.6081 41.8249 93.1596 41.8249C92.8146 41.8249 92.4212 41.956 92.1314 42.1147V41.1348C92.4281 40.9554 92.8284 40.8588 93.2424 40.8588C94.2568 40.8588 95.002 41.4523 95.002 42.2458C95.002 42.7357 94.7191 43.1567 94.2637 43.3292V43.343C94.8226 43.5362 95.0986 44.0054 95.0986 44.523C95.0986 45.4062 94.2913 46.0066 93.2769 46.0066C92.7387 46.0066 92.1797 45.8548 91.8347 45.6201ZM95.5907 46.945L95.9771 44.8749H96.9363L96.3153 46.945H95.5907ZM99.2569 46.0066C98.7049 46.0066 98.2011 45.772 97.8768 45.3303C97.5663 44.9025 97.4214 44.3091 97.4214 43.4327C97.4214 42.5563 97.5663 41.9629 97.8768 41.5351C98.2011 41.0934 98.7049 40.8588 99.2569 40.8588C99.8158 40.8588 100.313 41.0934 100.637 41.5351C100.948 41.9629 101.092 42.5563 101.092 43.4327C101.092 44.3091 100.948 44.9025 100.637 45.3303C100.313 45.772 99.8158 46.0066 99.2569 46.0066ZM99.2569 45.0267C99.4846 45.0267 99.6502 44.9094 99.7606 44.7576C99.9263 44.523 99.9953 44.1296 99.9953 43.4258C99.9953 42.7978 99.9401 42.3631 99.7606 42.1078C99.6502 41.9491 99.4846 41.8387 99.2569 41.8387C99.0361 41.8387 98.8636 41.9491 98.7532 42.1078C98.5807 42.3562 98.5186 42.7978 98.5186 43.4396C98.5186 44.1227 98.5876 44.523 98.7532 44.7576C98.8636 44.9094 99.0361 45.0267 99.2569 45.0267ZM103.452 46.0066C102.9 46.0066 102.396 45.772 102.072 45.3303C101.761 44.9025 101.616 44.3091 101.616 43.4327C101.616 42.5563 101.761 41.9629 102.072 41.5351C102.396 41.0934 102.9 40.8588 103.452 40.8588C104.011 40.8588 104.508 41.0934 104.832 41.5351C105.143 41.9629 105.287 42.5563 105.287 43.4327C105.287 44.3091 105.143 44.9025 104.832 45.3303C104.508 45.772 104.011 46.0066 103.452 46.0066ZM103.452 45.0267C103.68 45.0267 103.845 44.9094 103.956 44.7576C104.121 44.523 104.19 44.1296 104.19 43.4258C104.19 42.7978 104.135 42.3631 103.956 42.1078C103.845 41.9491 103.68 41.8387 103.452 41.8387C103.231 41.8387 103.059 41.9491 102.948 42.1078C102.776 42.3562 102.714 42.7978 102.714 43.4396C102.714 44.1227 102.783 44.523 102.948 44.7576C103.059 44.9094 103.231 45.0267 103.452 45.0267ZM107.647 46.0066C107.095 46.0066 106.591 45.772 106.267 45.3303C105.956 44.9025 105.811 44.3091 105.811 43.4327C105.811 42.5563 105.956 41.9629 106.267 41.5351C106.591 41.0934 107.095 40.8588 107.647 40.8588C108.206 40.8588 108.703 41.0934 109.027 41.5351C109.338 41.9629 109.482 42.5563 109.482 43.4327C109.482 44.3091 109.338 44.9025 109.027 45.3303C108.703 45.772 108.206 46.0066 107.647 46.0066ZM107.647 45.0267C107.875 45.0267 108.04 44.9094 108.151 44.7576C108.316 44.523 108.385 44.1296 108.385 43.4258C108.385 42.7978 108.33 42.3631 108.151 42.1078C108.04 41.9491 107.875 41.8387 107.647 41.8387C107.426 41.8387 107.254 41.9491 107.143 42.1078C106.971 42.3562 106.909 42.7978 106.909 43.4396C106.909 44.1227 106.978 44.523 107.143 44.7576C107.254 44.9094 107.426 45.0267 107.647 45.0267Z"
            fill="#CBCDD3" />
        <path fill-rule="evenodd" clip-rule="evenodd"
            d="M170.831 41.3892L171.77 41.533C172.464 41.6392 172.96 42.2603 172.908 42.9601L172.839 43.9086C172.819 44.1849 172.97 44.445 173.219 44.5653L173.914 44.9001C174.163 45.0204 174.461 44.9754 174.665 44.7878L175.363 44.1425C175.878 43.6666 176.673 43.6666 177.188 44.1425L177.887 44.7878C178.09 44.9761 178.388 45.0204 178.638 44.9001L179.334 44.5647C179.583 44.445 179.733 44.1855 179.713 43.9099L179.643 42.9601C179.592 42.2603 180.088 41.6392 180.781 41.533L181.721 41.3892C181.995 41.3475 182.215 41.1425 182.277 40.8722L182.448 40.1207C182.51 39.8505 182.401 39.5702 182.172 39.4142L181.388 38.8771C180.809 38.4805 180.632 37.7061 180.982 37.0978L181.456 36.2736C181.593 36.0337 181.571 35.7332 181.398 35.5167L180.917 34.9138C180.744 34.6973 180.457 34.6079 180.192 34.6892L179.283 34.9675C178.611 35.1732 177.896 34.8284 177.637 34.1757L177.289 33.2931C177.187 33.0349 176.938 32.8655 176.66 32.8662L175.89 32.8682C175.612 32.8689 175.363 33.0396 175.263 33.2984L174.923 34.171C174.668 34.8277 173.948 35.1753 173.275 34.9682L172.328 34.6778C172.063 34.5958 171.774 34.6859 171.601 34.9037L171.124 35.5073C170.951 35.7258 170.93 36.0269 171.071 36.2669L171.555 37.0931C171.912 37.7021 171.737 38.4839 171.155 38.8825L170.38 39.4135C170.152 39.5702 170.042 39.8505 170.104 40.12L170.275 40.8716C170.337 41.1425 170.557 41.3475 170.831 41.3892V41.3892Z"
            stroke="#BBBBB9" stroke-width="0.756236" stroke-linecap="round" stroke-linejoin="round" />
        <path
            d="M177.563 37.6496C178.275 38.3608 178.275 39.5143 177.563 40.2255C176.852 40.9367 175.699 40.9367 174.987 40.2255C174.276 39.5143 174.276 38.3608 174.987 37.6496C175.699 36.9384 176.852 36.9384 177.563 37.6496"
            stroke="#BBBBB9" stroke-width="0.756236" stroke-linecap="round" stroke-linejoin="round" />
        <rect x="8.13316" y="63.8295" width="175.962" height="80.5071" rx="5.66825"
            fill="url(#paint0_linear_7564_47592)" fill-opacity="0.4" />
        <path
            d="M16.0564 74.9856C16.0564 73.5641 17.0914 72.3979 18.6578 72.3979C19.1823 72.3979 19.6722 72.529 20.0655 72.7498V73.4675C19.6929 73.1914 19.1823 73.0051 18.6509 73.0051C17.5124 73.0051 16.7119 73.8608 16.7119 74.9718C16.7119 76.0827 17.5124 76.9384 18.7061 76.9384C19.2582 76.9384 19.7481 76.7521 20.1414 76.4347V77.1592C19.7412 77.4145 19.1961 77.5456 18.6716 77.5456C17.1535 77.5456 16.0564 76.4485 16.0564 74.9856ZM21.1397 77.1661C20.9465 76.9384 20.8637 76.6348 20.8637 76.1517V74.0747H21.4847V76.0344C21.4847 76.4071 21.533 76.6003 21.6503 76.7383C21.7883 76.9108 21.9884 76.9729 22.1886 76.9729C22.6095 76.9729 23.0097 76.6969 23.2512 76.3933V74.0747H23.8723V77.4697H23.2512V77.0419L23.2374 77.035C22.9407 77.3317 22.5336 77.5456 22.0644 77.5456C21.7193 77.5456 21.3674 77.4283 21.1397 77.1661ZM24.8231 77.4697V74.0747H25.4442V74.5715L25.458 74.5784C25.6926 74.2472 26.0652 74.0471 26.4655 74.0471C26.5345 74.0471 26.6104 74.054 26.6863 74.0747V74.6888C26.6035 74.6681 26.5207 74.6612 26.4448 74.6612C25.9824 74.6612 25.6581 74.8958 25.4442 75.2616V77.4697H24.8231ZM27.2189 77.4697V74.0747H27.8399V74.5715L27.8537 74.5784C28.0884 74.2472 28.461 74.0471 28.8612 74.0471C28.9302 74.0471 29.0061 74.054 29.082 74.0747V74.6888C28.9992 74.6681 28.9164 74.6612 28.8405 74.6612C28.3782 74.6612 28.0539 74.8958 27.8399 75.2616V77.4697H27.2189ZM32.5148 75.9516H29.9202C30.0099 76.621 30.5068 76.9867 31.1761 76.9867C31.6453 76.9867 32.0387 76.8004 32.3492 76.5658V77.2282C32.0456 77.4214 31.5763 77.5456 31.1347 77.5456C30.0858 77.5456 29.2992 76.8418 29.2992 75.7722C29.2992 74.7026 30.0789 73.9988 30.9898 73.9988C31.8178 73.9988 32.5355 74.5784 32.5355 75.6411C32.5355 75.7446 32.5286 75.8688 32.5148 75.9516ZM30.976 74.5577C30.5275 74.5577 30.0444 74.8337 29.934 75.4617H31.9352C31.88 74.7854 31.3831 74.5577 30.976 74.5577ZM33.284 77.4697V74.0747H33.9051V74.5025L33.9189 74.5094C34.2156 74.2127 34.6296 73.9988 35.1058 73.9988C35.4784 73.9988 35.7958 74.1299 36.0097 74.3714C36.196 74.5853 36.2926 74.8475 36.2926 75.372V77.4697H35.6716V75.4893C35.6716 75.1374 35.6233 74.9304 35.5129 74.7992C35.3749 74.6336 35.1541 74.5784 34.9678 74.5784C34.5813 74.5784 34.1466 74.8199 33.9051 75.1443V77.4697H33.284ZM37.7472 77.2282C37.5816 77.0419 37.4919 76.7659 37.4919 76.2897V74.6336H36.864V74.0747H37.4919V73.15L38.113 73.0465V74.0747H39.1342V74.6336H38.113V76.1724C38.113 76.5934 38.1751 76.9798 38.6236 76.9798C38.803 76.9798 39.0031 76.9177 39.1342 76.8349V77.4214C38.9962 77.4904 38.7547 77.5456 38.5201 77.5456C38.2717 77.5456 37.9681 77.4835 37.7472 77.2282ZM41.3207 77.4697V72.4738H42.6594C43.2667 72.4738 43.6531 72.529 43.9912 72.736C44.3707 72.9637 44.5777 73.3087 44.5777 73.7573C44.5777 74.33 44.2327 74.6681 43.8187 74.813V74.8268C44.4052 74.9649 44.7779 75.3513 44.7779 75.993C44.7779 76.4692 44.5708 76.8832 44.2051 77.1385C43.8532 77.3869 43.3702 77.4697 42.6456 77.4697H41.3207ZM41.9763 74.6543H42.963C43.4668 74.6543 43.9222 74.4197 43.9222 73.8746C43.9222 73.5641 43.7773 73.3639 43.5703 73.2397C43.3357 73.1017 43.0665 73.0672 42.5697 73.0672H41.9763V74.6543ZM41.9763 76.8763H42.687C43.2529 76.8763 43.5703 76.8211 43.798 76.6624C43.9567 76.552 44.1223 76.3449 44.1223 76.0068C44.1223 75.4548 43.6876 75.1581 42.9423 75.1581H41.9763V76.8763ZM46.4808 77.5456C46.2048 77.5456 45.9012 77.4766 45.6735 77.3041C45.4526 77.1385 45.3146 76.8832 45.3146 76.552C45.3146 76.1724 45.494 75.8964 45.7632 75.7239C46.0185 75.5583 46.3635 75.4962 46.7154 75.4962C46.9777 75.4962 47.2192 75.5307 47.44 75.5859V75.303C47.44 75.0546 47.3779 74.8682 47.2468 74.744C47.1157 74.6267 46.9086 74.5577 46.6188 74.5577C46.191 74.5577 45.8322 74.7095 45.5769 74.8958V74.2886C45.8391 74.1299 46.2048 73.9988 46.7085 73.9988C47.1226 73.9988 47.4814 74.0885 47.7229 74.3093C47.923 74.4887 48.061 74.7785 48.061 75.1995V76.6417C48.061 76.8487 48.1369 77.0005 48.3232 77.0005C48.3922 77.0005 48.4682 76.9798 48.5234 76.9522V77.4697C48.4406 77.5042 48.3232 77.5318 48.1921 77.5318C47.923 77.5318 47.6677 77.4145 47.5366 77.173H47.5228C47.3296 77.3524 46.9362 77.5456 46.4808 77.5456ZM46.5912 76.9936C46.9155 76.9936 47.233 76.8625 47.44 76.6969V76.062C47.2537 76.0068 46.9915 75.9723 46.7775 75.9723C46.3566 75.9723 45.9426 76.0965 45.9426 76.4968C45.9426 76.828 46.2255 76.9936 46.5912 76.9936ZM49.077 77.4697V72.1978H49.698V77.4697H49.077ZM51.5891 77.5456C51.313 77.5456 51.0094 77.4766 50.7817 77.3041C50.5609 77.1385 50.4229 76.8832 50.4229 76.552C50.4229 76.1724 50.6023 75.8964 50.8714 75.7239C51.1267 75.5583 51.4717 75.4962 51.8237 75.4962C52.0859 75.4962 52.3274 75.5307 52.5482 75.5859V75.303C52.5482 75.0546 52.4861 74.8682 52.355 74.744C52.2239 74.6267 52.0169 74.5577 51.7271 74.5577C51.2992 74.5577 50.9404 74.7095 50.6851 74.8958V74.2886C50.9473 74.1299 51.313 73.9988 51.8168 73.9988C52.2308 73.9988 52.5896 74.0885 52.8311 74.3093C53.0313 74.4887 53.1693 74.7785 53.1693 75.1995V76.6417C53.1693 76.8487 53.2452 77.0005 53.4315 77.0005C53.5005 77.0005 53.5764 76.9798 53.6316 76.9522V77.4697C53.5488 77.5042 53.4315 77.5318 53.3004 77.5318C53.0313 77.5318 52.7759 77.4145 52.6448 77.173H52.631C52.4378 77.3524 52.0445 77.5456 51.5891 77.5456ZM51.6995 76.9936C52.0238 76.9936 52.3412 76.8625 52.5482 76.6969V76.062C52.3619 76.0068 52.0997 75.9723 51.8858 75.9723C51.4648 75.9723 51.0508 76.0965 51.0508 76.4968C51.0508 76.828 51.3337 76.9936 51.6995 76.9936ZM54.1852 77.4697V74.0747H54.8062V74.5025L54.82 74.5094C55.1168 74.2127 55.5308 73.9988 56.0069 73.9988C56.3795 73.9988 56.697 74.1299 56.9109 74.3714C57.0972 74.5853 57.1938 74.8475 57.1938 75.372V77.4697H56.5728V75.4893C56.5728 75.1374 56.5245 74.9304 56.4141 74.7992C56.276 74.6336 56.0552 74.5784 55.8689 74.5784C55.4825 74.5784 55.0478 74.8199 54.8062 75.1443V77.4697H54.1852ZM60.753 76.6486V77.311C60.4632 77.4697 60.0837 77.5456 59.7387 77.5456C58.6622 77.5456 57.8962 76.8004 57.8962 75.7929C57.8962 74.744 58.7243 73.9988 59.7801 73.9988C60.132 73.9988 60.4563 74.0885 60.6978 74.2127V74.8544C60.4149 74.675 60.0837 74.5646 59.7525 74.5646C59.0141 74.5646 58.5242 75.1098 58.5242 75.7929C58.5242 76.4899 59.0417 76.9798 59.7732 76.9798C60.1596 76.9798 60.4977 76.8487 60.753 76.6486ZM64.478 75.9516H61.8834C61.9731 76.621 62.47 76.9867 63.1393 76.9867C63.6085 76.9867 64.0019 76.8004 64.3124 76.5658V77.2282C64.0088 77.4214 63.5395 77.5456 63.0979 77.5456C62.049 77.5456 61.2624 76.8418 61.2624 75.7722C61.2624 74.7026 62.0421 73.9988 62.953 73.9988C63.7811 73.9988 64.4987 74.5784 64.4987 75.6411C64.4987 75.7446 64.4918 75.8688 64.478 75.9516ZM62.9392 74.5577C62.4907 74.5577 62.0076 74.8337 61.8972 75.4617H63.8984C63.8432 74.7854 63.3463 74.5577 62.9392 74.5577Z"
            fill="white" fill-opacity="0.7" />
        <path
            d="M16.6409 92.0907V91.2666H17.2156C17.0313 90.7895 16.8361 90.2799 16.8361 89.7051C16.8361 88.2955 17.953 87.4714 19.3952 87.4714C20.1109 87.4714 20.7832 87.6774 21.1736 87.9159V89.0111C20.6205 88.6099 19.9699 88.4256 19.4169 88.4256C18.506 88.4256 17.8663 88.9461 17.8663 89.7485C17.8663 90.2148 18.0831 90.7461 18.2783 91.2666H20.2952V92.0907H18.5277C18.5711 92.3076 18.6036 92.5245 18.6036 92.7413C18.6036 93.457 18.2892 94.0751 17.9096 94.4872V94.5089H21.4772V95.4414H16.6409V94.6715C17.1289 94.2811 17.6277 93.5763 17.6277 92.7847C17.6277 92.557 17.5843 92.3184 17.5193 92.0907H16.6409Z"
            fill="white" />
        <path
            d="M23.1254 95.4079L26.9798 90.548C28.2702 88.9224 28.8902 87.9504 28.8902 86.9282C28.8902 85.7048 28.0355 85.0513 26.7954 85.0513C25.924 85.0513 24.9017 85.3864 24.0136 86.04V83.9955C24.6839 83.543 25.6894 83.1241 26.963 83.1241C29.2254 83.1241 31.0353 84.4647 31.0353 86.7606C31.0353 88.2689 30.2644 89.5928 28.9237 91.2853L27.1474 93.5142L27.1641 93.5477H31.471V95.4414H23.1421L23.1254 95.4079ZM32.8496 97.9049L33.7881 93.0115H35.7153L34.2908 97.9049H32.8496ZM40.5384 95.4414V85.9227L37.9074 86.8947V84.9004L42.6667 83.1241V95.4414H40.5384ZM49.9179 83.3084H52.3814L49.0968 88.3526L49.1303 88.3862C49.5157 88.1515 50.0688 87.9672 50.7056 87.9672C52.7333 87.9672 54.3924 89.509 54.3924 91.6875C54.3924 93.9499 52.5658 95.6257 50.0688 95.6257C47.6388 95.6257 45.7619 94.0337 45.7619 91.5032C45.7619 90.2631 46.1808 89.1738 47.2534 87.498L49.9179 83.3084ZM47.9237 91.6708C47.9237 92.7601 48.7951 93.7991 50.1023 93.7991C51.2921 93.7991 52.2976 92.9779 52.2976 91.7378C52.2976 90.5647 51.3927 89.6598 50.1358 89.6598C48.9125 89.6598 47.9237 90.4977 47.9237 91.6708ZM60.1452 88.3359C61.201 88.3359 62.0724 87.6153 62.0724 86.6265C62.0724 85.6378 61.2345 84.9172 60.1452 84.9172C59.0559 84.9172 58.218 85.6378 58.218 86.6265C58.218 87.6153 59.0894 88.3359 60.1452 88.3359ZM60.1452 93.8159C61.3686 93.8159 62.3238 93.0282 62.3238 91.8886C62.3238 90.7323 61.3518 89.9112 60.1452 89.9112C58.9386 89.9112 57.9666 90.7323 57.9666 91.8886C57.9666 93.0282 58.9219 93.8159 60.1452 93.8159ZM60.1452 95.6257C57.598 95.6257 55.8216 94.1175 55.8216 91.9892C55.8216 90.6318 56.5589 89.509 57.8829 89.023V88.9895C56.7936 88.537 56.1903 87.6488 56.1903 86.4757C56.1903 84.5485 57.8493 83.1241 60.1452 83.1241C62.4411 83.1241 64.1002 84.5485 64.1002 86.4757C64.1002 87.6488 63.4969 88.537 62.4076 88.9895V89.023C63.7315 89.509 64.4689 90.6318 64.4689 91.9892C64.4689 94.1175 62.6925 95.6257 60.1452 95.6257Z"
            fill="white" />
        <path
            d="M66.6626 94.845C66.6626 94.4546 66.9879 94.1293 67.3783 94.1293C67.7687 94.1293 68.094 94.4546 68.094 94.845C68.094 95.2354 67.7687 95.5607 67.3783 95.5607C66.9879 95.5607 66.6626 95.2354 66.6626 94.845ZM71.379 95.4414V88.8593L69.5789 89.5533V88.5666L72.4091 87.4714V95.4414H71.379ZM74.3045 95.4197L76.8961 92.3076C77.7853 91.2449 78.2082 90.5618 78.2082 89.8244C78.2082 88.9136 77.5684 88.4256 76.6575 88.4256C76.1045 88.4256 75.4539 88.6099 74.9009 89.0111V87.9702C75.3021 87.7099 75.9527 87.4714 76.7118 87.4714C78.0997 87.4714 79.2383 88.2629 79.2383 89.7702C79.2383 90.8437 78.6528 91.7437 77.7311 92.8498L76.3648 94.4872L76.3756 94.5089H79.5202V95.4414H74.3153L74.3045 95.4197Z"
            fill="white" />
        <mask id="mask0_7564_47592" style="mask-type:luminance" maskUnits="userSpaceOnUse" x="140" y="71" width="33"
            height="13">
            <path fill-rule="evenodd" clip-rule="evenodd" d="M140.801 71.4697H172.968V83.2991H140.801V71.4697Z"
                fill="white" />
        </mask>
        <g mask="url(#mask0_7564_47592)">
            <path fill-rule="evenodd" clip-rule="evenodd"
                d="M170.35 80.0379C170.127 80.5633 169.499 80.9764 168.806 80.9764C167.711 80.9764 166.871 80.2059 166.871 78.956C166.871 77.7061 167.711 76.9529 168.806 76.9529C169.499 76.9529 170.024 77.2537 170.35 77.7221V80.0379ZM170.35 75.0782C170.069 74.8609 169.479 74.6235 168.686 74.6235C166.101 74.6235 164.166 76.37 164.166 78.9553C164.166 81.5576 165.87 83.3041 168.455 83.3041C169.209 83.3041 170.063 83.0017 170.35 82.6715V83.0951H172.969V71.4697L170.35 71.8279V75.0782Z"
                fill="#F0F0EF" />
            <path fill-rule="evenodd" clip-rule="evenodd"
                d="M157.655 77.8706C157.757 77.2714 158.202 76.4493 159.35 76.4493C160.565 76.4493 160.993 77.2885 161.062 77.8706H157.655ZM159.349 74.4131C156.764 74.4131 154.949 76.3477 154.949 78.7446C154.949 81.4328 156.918 83.3024 159.469 83.3024C160.617 83.3024 161.942 83.0819 162.927 82.2731L162.35 80.1269C162.35 80.1269 161.466 81.265 159.794 81.265C158.562 81.265 157.843 80.354 157.689 79.5838H163.578V79.0186C163.578 76.2106 161.798 74.4131 159.349 74.4131Z"
                fill="#F0F0EF" />
            <path fill-rule="evenodd" clip-rule="evenodd"
                d="M145.435 76.7415C146.137 76.7415 146.667 77.0497 146.993 77.529L148.705 75.937C148.208 75.2006 147.095 74.4131 145.315 74.4131C142.73 74.4131 140.795 76.1593 140.795 78.7446C140.795 81.3472 142.749 83.3024 145.315 83.3024C147.095 83.3024 148.208 82.4975 148.705 81.7786L146.993 80.1692C146.667 80.6315 146.137 80.974 145.435 80.974C144.339 80.974 143.5 79.9945 143.5 78.7446C143.5 77.4948 144.339 76.7415 145.435 76.7415Z"
                fill="#F0F0EF" />
        </g>
        <path fill-rule="evenodd" clip-rule="evenodd"
            d="M151.829 75.9006V74.4961L149.192 74.8562V83.1257H151.829V78.4234C152.951 77.1055 154.414 77.2014 154.414 77.2014L154.932 74.6504C153.572 74.6504 152.377 75.2329 151.829 75.9006Z"
            fill="#E2E2E4" />
        <path fill-rule="evenodd" clip-rule="evenodd"
            d="M175.077 80.3379C174.329 80.3379 173.698 80.9686 173.698 81.7166C173.698 82.4646 174.329 83.0954 175.077 83.0954C175.825 83.0954 176.456 82.4646 176.456 81.7166C176.456 80.9686 175.825 80.3379 175.077 80.3379Z"
            fill="#F5A054" />
        <path
            d="M121.621 118.924L123.678 113.928H124.306L126.369 118.924H125.665L125.106 117.53H122.857L122.291 118.924H121.621ZM123.491 115.943L123.084 116.957H124.878L124.471 115.922C124.313 115.522 124.147 115.094 123.995 114.687H123.981C123.83 115.094 123.664 115.515 123.491 115.943ZM127.504 118.924L126.075 115.529H126.751L127.379 117.061C127.531 117.433 127.669 117.778 127.814 118.151H127.828C127.98 117.765 128.125 117.406 128.283 117.019L128.898 115.529H129.546L128.125 118.924H127.504ZM130.793 119C130.517 119 130.214 118.931 129.986 118.758C129.765 118.593 129.627 118.337 129.627 118.006C129.627 117.627 129.807 117.351 130.076 117.178C130.331 117.012 130.676 116.95 131.028 116.95C131.29 116.95 131.532 116.985 131.753 117.04V116.757C131.753 116.509 131.69 116.322 131.559 116.198C131.428 116.081 131.221 116.012 130.931 116.012C130.504 116.012 130.145 116.164 129.889 116.35V115.743C130.152 115.584 130.517 115.453 131.021 115.453C131.435 115.453 131.794 115.543 132.035 115.763C132.236 115.943 132.374 116.233 132.374 116.654V118.096C132.374 118.303 132.449 118.455 132.636 118.455C132.705 118.455 132.781 118.434 132.836 118.406V118.924C132.753 118.958 132.636 118.986 132.505 118.986C132.236 118.986 131.98 118.869 131.849 118.627H131.835C131.642 118.807 131.249 119 130.793 119ZM130.904 118.448C131.228 118.448 131.546 118.317 131.753 118.151V117.516C131.566 117.461 131.304 117.426 131.09 117.426C130.669 117.426 130.255 117.551 130.255 117.951C130.255 118.282 130.538 118.448 130.904 118.448ZM133.265 114.363C133.265 114.121 133.459 113.928 133.7 113.928C133.942 113.928 134.135 114.121 134.135 114.363C134.135 114.604 133.942 114.797 133.7 114.797C133.459 114.797 133.265 114.604 133.265 114.363ZM133.39 118.924V115.529H134.011V118.924H133.39ZM134.963 118.924V113.652H135.584V118.924H134.963ZM137.475 119C137.199 119 136.896 118.931 136.668 118.758C136.447 118.593 136.309 118.337 136.309 118.006C136.309 117.627 136.488 117.351 136.758 117.178C137.013 117.012 137.358 116.95 137.71 116.95C137.972 116.95 138.214 116.985 138.434 117.04V116.757C138.434 116.509 138.372 116.322 138.241 116.198C138.11 116.081 137.903 116.012 137.613 116.012C137.185 116.012 136.827 116.164 136.571 116.35V115.743C136.833 115.584 137.199 115.453 137.703 115.453C138.117 115.453 138.476 115.543 138.717 115.763C138.917 115.943 139.055 116.233 139.055 116.654V118.096C139.055 118.303 139.131 118.455 139.318 118.455C139.387 118.455 139.463 118.434 139.518 118.406V118.924C139.435 118.958 139.318 118.986 139.187 118.986C138.917 118.986 138.662 118.869 138.531 118.627H138.517C138.324 118.807 137.931 119 137.475 119ZM137.586 118.448C137.91 118.448 138.227 118.317 138.434 118.151V117.516C138.248 117.461 137.986 117.426 137.772 117.426C137.351 117.426 136.937 117.551 136.937 117.951C136.937 118.282 137.22 118.448 137.586 118.448ZM140.071 118.924V113.652H140.692V115.722L140.706 115.729C140.92 115.591 141.258 115.453 141.665 115.453C142.583 115.453 143.321 116.15 143.321 117.178C143.321 118.227 142.562 119 141.52 119C141.203 119 140.927 118.924 140.672 118.82L140.071 118.924ZM140.692 118.234C140.913 118.365 141.258 118.455 141.541 118.455C142.231 118.455 142.694 117.923 142.694 117.213C142.694 116.529 142.259 116.012 141.589 116.012C141.224 116.012 140.92 116.143 140.692 116.329V118.234ZM144.037 118.924V113.652H144.658V118.924H144.037ZM148.592 117.406H145.997C146.087 118.075 146.584 118.441 147.253 118.441C147.722 118.441 148.116 118.254 148.426 118.02V118.682C148.123 118.876 147.653 119 147.212 119C146.163 119 145.376 118.296 145.376 117.226C145.376 116.157 146.156 115.453 147.067 115.453C147.895 115.453 148.613 116.033 148.613 117.095C148.613 117.199 148.606 117.323 148.592 117.406ZM147.053 116.012C146.605 116.012 146.122 116.288 146.011 116.916H148.012C147.957 116.24 147.46 116.012 147.053 116.012ZM150.729 116.888V116.088H151.025C150.956 115.867 150.901 115.632 150.901 115.384C150.901 114.459 151.653 113.852 152.668 113.852C153.206 113.852 153.655 114.024 153.924 114.204V115.267C153.551 114.997 153.109 114.839 152.751 114.839C152.309 114.839 151.998 115.073 151.998 115.474C151.998 115.646 152.054 115.86 152.123 116.088H153.261V116.888H152.323C152.337 116.971 152.343 117.047 152.343 117.123C152.343 117.502 152.178 117.778 151.957 117.951V117.965H154.103V118.924H150.729V118.123C151.15 117.916 151.308 117.571 151.308 117.199C151.308 117.095 151.295 116.992 151.274 116.888H150.729ZM156.503 115.943C156.869 115.943 157.166 115.688 157.166 115.342C157.166 115.004 156.876 114.749 156.503 114.749C156.131 114.749 155.841 115.004 155.841 115.342C155.841 115.688 156.138 115.943 156.503 115.943ZM156.503 118.096C156.938 118.096 157.262 117.806 157.262 117.413C157.262 117.012 156.924 116.716 156.503 116.716C156.082 116.716 155.744 117.012 155.744 117.413C155.744 117.806 156.069 118.096 156.503 118.096ZM156.503 119C155.42 119 154.62 118.386 154.62 117.489C154.62 116.95 154.916 116.488 155.461 116.281V116.267C155.02 116.095 154.778 115.701 154.778 115.246C154.778 114.445 155.53 113.852 156.503 113.852C157.476 113.852 158.228 114.445 158.228 115.246C158.228 115.701 157.987 116.095 157.545 116.267V116.281C158.09 116.488 158.387 116.95 158.387 117.489C158.387 118.386 157.587 119 156.503 119ZM158.915 118.613V117.558C159.378 117.84 159.854 118.034 160.302 118.034C160.772 118.034 161.082 117.813 161.082 117.433C161.082 117.075 160.813 116.847 160.22 116.847H159.723V116.019H160.192C160.73 116.019 160.986 115.77 160.986 115.418C160.986 115.039 160.689 114.818 160.24 114.818C159.895 114.818 159.502 114.949 159.212 115.108V114.128C159.509 113.949 159.909 113.852 160.323 113.852C161.338 113.852 162.083 114.445 162.083 115.239C162.083 115.729 161.8 116.15 161.344 116.322V116.336C161.903 116.529 162.179 116.999 162.179 117.516C162.179 118.399 161.372 119 160.358 119C159.819 119 159.26 118.848 158.915 118.613ZM163.845 118.924V115.246L162.83 115.612V114.618L164.942 113.852V118.924H163.845ZM166.229 118.379C166.229 118.034 166.519 117.758 166.864 117.758C167.209 117.758 167.499 118.034 167.499 118.379C167.499 118.724 167.209 119 166.864 119C166.519 119 166.229 118.724 166.229 118.379ZM169.934 115.943C170.3 115.943 170.597 115.688 170.597 115.342C170.597 115.004 170.307 114.749 169.934 114.749C169.562 114.749 169.272 115.004 169.272 115.342C169.272 115.688 169.568 115.943 169.934 115.943ZM169.934 118.096C170.369 118.096 170.693 117.806 170.693 117.413C170.693 117.012 170.355 116.716 169.934 116.716C169.513 116.716 169.175 117.012 169.175 117.413C169.175 117.806 169.499 118.096 169.934 118.096ZM169.934 119C168.851 119 168.05 118.386 168.05 117.489C168.05 116.95 168.347 116.488 168.892 116.281V116.267C168.451 116.095 168.209 115.701 168.209 115.246C168.209 114.445 168.961 113.852 169.934 113.852C170.907 113.852 171.659 114.445 171.659 115.246C171.659 115.701 171.418 116.095 170.976 116.267V116.281C171.521 116.488 171.818 116.95 171.818 117.489C171.818 118.386 171.018 119 169.934 119ZM174.237 115.943C174.603 115.943 174.899 115.688 174.899 115.342C174.899 115.004 174.61 114.749 174.237 114.749C173.864 114.749 173.575 115.004 173.575 115.342C173.575 115.688 173.871 115.943 174.237 115.943ZM174.237 118.096C174.672 118.096 174.996 117.806 174.996 117.413C174.996 117.012 174.658 116.716 174.237 116.716C173.816 116.716 173.478 117.012 173.478 117.413C173.478 117.806 173.802 118.096 174.237 118.096ZM174.237 119C173.154 119 172.353 118.386 172.353 117.489C172.353 116.95 172.65 116.488 173.195 116.281V116.267C172.753 116.095 172.512 115.701 172.512 115.246C172.512 114.445 173.264 113.852 174.237 113.852C175.21 113.852 175.962 114.445 175.962 115.246C175.962 115.701 175.721 116.095 175.279 116.267V116.281C175.824 116.488 176.121 116.95 176.121 117.489C176.121 118.386 175.32 119 174.237 119Z"
            fill="white" fill-opacity="0.7" />
        <path
            d="M117.802 127.332C117.802 127.06 118.022 126.839 118.295 126.839H175.47C176.014 126.839 176.456 127.28 176.456 127.825C176.456 128.369 176.014 128.81 175.47 128.81H118.295C118.022 128.81 117.802 128.59 117.802 128.318V127.332Z"
            fill="black" fill-opacity="0.35" />
        <path
            d="M15.7734 127.825C15.7734 127.28 16.2148 126.839 16.7592 126.839H114.352C114.624 126.839 114.845 127.06 114.845 127.332V128.318C114.845 128.59 114.624 128.81 114.352 128.81H16.7592C16.2148 128.81 15.7734 128.369 15.7734 127.825Z"
            fill="#F5A054" />
        <rect x="115.83" y="124.867" width="0.985782" height="5.91469" rx="0.492891" fill="#F5A054" />
        <circle cx="93.1571" cy="136.697" r="1.97156" fill="white" />
        <circle cx="99.0722" cy="136.697" r="1.97156" fill="white" fill-opacity="0.17" />
        <rect x="8.13316" y="63.8295" width="175.962" height="80.5071" rx="5.66825"
            stroke="url(#paint1_linear_7564_47592)" stroke-width="0.492891" />
        <rect x="7.88672" y="152.47" width="176" height="62.4369" rx="5.91469" fill="#F5A054" />
        <rect x="15.7734" y="160.356" width="27.6019" height="27.6019" rx="13.8009" fill="black" fill-opacity="0.6" />
        <path d="M32.2715 173.365L34.1754 171.461L32.2715 169.558" stroke="white" stroke-width="0.739336"
            stroke-linecap="round" stroke-linejoin="round" />
        <path d="M24.9746 171.463H34.1752" stroke="white" stroke-width="0.739336" stroke-linecap="round"
            stroke-linejoin="round" />
        <path d="M26.8785 174.951L24.9746 176.854L26.8785 178.758" stroke="white" stroke-width="0.739336"
            stroke-linecap="round" stroke-linejoin="round" />
        <path d="M34.1752 176.853H24.9746" stroke="white" stroke-width="0.739336" stroke-linecap="round"
            stroke-linejoin="round" />
        <path
            d="M16.4921 204.021V197.597H17.3349V204.021H16.4921ZM18.4868 204.021V199.655H19.2853V200.206L19.3031 200.214C19.6846 199.833 20.2169 199.558 20.829 199.558C21.3081 199.558 21.7162 199.726 21.9913 200.037C22.2308 200.312 22.355 200.649 22.355 201.323V204.021H21.5566V201.474C21.5566 201.022 21.4944 200.756 21.3525 200.587C21.1751 200.374 20.8911 200.303 20.6516 200.303C20.1548 200.303 19.5958 200.614 19.2853 201.031V204.021H18.4868ZM23.3558 203.772V202.938C23.8526 203.249 24.4736 203.399 25.0148 203.399C25.6181 203.399 26.0085 203.222 26.0085 202.796C26.0085 202.273 25.3786 202.264 24.7043 202.149C23.8704 202.007 23.2138 201.758 23.2138 200.898C23.2227 199.993 23.9946 199.558 25.006 199.558C25.5294 199.558 26.1327 199.673 26.5675 199.904V200.702C26.0795 200.418 25.4762 200.277 24.9705 200.277C24.4115 200.277 24.0212 200.445 24.0212 200.835C24.0212 201.332 24.6422 201.332 25.2899 201.448C26.1238 201.59 26.8159 201.82 26.8159 202.725C26.8159 203.737 25.9109 204.118 24.9794 204.118C24.4204 204.118 23.8082 204.003 23.3558 203.772ZM28.2977 203.71C28.0848 203.47 27.9694 203.116 27.9694 202.503V200.374H27.1621V199.655H27.9694V198.467L28.7679 198.334V199.655H30.081V200.374H28.7679V202.353C28.7679 202.894 28.8478 203.391 29.4245 203.391C29.6551 203.391 29.9124 203.311 30.081 203.204V203.958C29.9035 204.047 29.593 204.118 29.2914 204.118C28.972 204.118 28.5816 204.038 28.2977 203.71ZM32.021 204.118C31.6662 204.118 31.2758 204.029 30.983 203.808C30.6991 203.595 30.5217 203.266 30.5217 202.841C30.5217 202.353 30.7523 201.998 31.0984 201.776C31.4266 201.563 31.8702 201.483 32.3227 201.483C32.6598 201.483 32.9704 201.527 33.2543 201.598V201.235C33.2543 200.915 33.1744 200.676 33.0058 200.516C32.8373 200.365 32.5711 200.277 32.1985 200.277C31.6484 200.277 31.1871 200.472 30.8588 200.711V199.93C31.196 199.726 31.6662 199.558 32.3138 199.558C32.8461 199.558 33.3075 199.673 33.618 199.957C33.8753 200.188 34.0527 200.56 34.0527 201.102V202.956C34.0527 203.222 34.1503 203.417 34.3899 203.417C34.4786 203.417 34.5762 203.391 34.6472 203.355V204.021C34.5407 204.065 34.3899 204.1 34.2213 204.1C33.8753 204.1 33.547 203.95 33.3785 203.639H33.3607C33.1123 203.87 32.6066 204.118 32.021 204.118ZM32.163 203.408C32.58 203.408 32.9881 203.24 33.2543 203.027V202.211C33.0147 202.14 32.6776 202.095 32.4025 202.095C31.8614 202.095 31.329 202.255 31.329 202.77C31.329 203.195 31.6928 203.408 32.163 203.408ZM35.2702 204.021V199.655H36.0687V200.206L36.0865 200.214C36.468 199.833 37.0003 199.558 37.6124 199.558C38.0915 199.558 38.4996 199.726 38.7747 200.037C39.0142 200.312 39.1384 200.649 39.1384 201.323V204.021H38.34V201.474C38.34 201.022 38.2778 200.756 38.1359 200.587C37.9585 200.374 37.6745 200.303 37.435 200.303C36.9382 200.303 36.3792 200.614 36.0687 201.031V204.021H35.2702ZM40.9199 203.71C40.707 203.47 40.5916 203.116 40.5916 202.503V200.374H39.7843V199.655H40.5916V198.467L41.3901 198.334V199.655H42.7032V200.374H41.3901V202.353C41.3901 202.894 41.47 203.391 42.0467 203.391C42.2773 203.391 42.5346 203.311 42.7032 203.204V203.958C42.5258 204.047 42.2152 204.118 41.9136 204.118C41.5942 204.118 41.2038 204.038 40.9199 203.71ZM45.9846 203.71C45.7717 203.47 45.6563 203.116 45.6563 202.503V200.374H44.849V199.655H45.6563V198.467L46.4548 198.334V199.655H47.7679V200.374H46.4548V202.353C46.4548 202.894 46.5347 203.391 47.1113 203.391C47.342 203.391 47.5993 203.311 47.7679 203.204V203.958C47.5904 204.047 47.2799 204.118 46.9783 204.118C46.6589 204.118 46.2685 204.038 45.9846 203.71ZM48.5013 204.021V199.655H49.2998V200.294L49.3176 200.303C49.6192 199.877 50.0983 199.62 50.6129 199.62C50.7016 199.62 50.7992 199.629 50.8968 199.655V200.445C50.7903 200.418 50.6839 200.41 50.5863 200.41C49.9918 200.41 49.5749 200.711 49.2998 201.181V204.021H48.5013ZM52.5522 204.118C52.1973 204.118 51.8069 204.029 51.5142 203.808C51.2303 203.595 51.0528 203.266 51.0528 202.841C51.0528 202.353 51.2835 201.998 51.6295 201.776C51.9578 201.563 52.4014 201.483 52.8538 201.483C53.191 201.483 53.5015 201.527 53.7854 201.598V201.235C53.7854 200.915 53.7056 200.676 53.537 200.516C53.3684 200.365 53.1023 200.277 52.7296 200.277C52.1796 200.277 51.7182 200.472 51.39 200.711V199.93C51.7271 199.726 52.1973 199.558 52.845 199.558C53.3773 199.558 53.8386 199.673 54.1492 199.957C54.4065 200.188 54.5839 200.56 54.5839 201.102V202.956C54.5839 203.222 54.6815 203.417 54.921 203.417C55.0097 203.417 55.1073 203.391 55.1783 203.355V204.021C55.0719 204.065 54.921 204.1 54.7525 204.1C54.4065 204.1 54.0782 203.95 53.9096 203.639H53.8919C53.6435 203.87 53.1377 204.118 52.5522 204.118ZM52.6941 203.408C53.1111 203.408 53.5192 203.24 53.7854 203.027V202.211C53.5459 202.14 53.2087 202.095 52.9337 202.095C52.3925 202.095 51.8602 202.255 51.8602 202.77C51.8602 203.195 52.2239 203.408 52.6941 203.408ZM55.8014 204.021V199.655H56.5999V200.206L56.6176 200.214C56.9991 199.833 57.5314 199.558 58.1436 199.558C58.6227 199.558 59.0308 199.726 59.3058 200.037C59.5454 200.312 59.6696 200.649 59.6696 201.323V204.021H58.8711V201.474C58.8711 201.022 58.809 200.756 58.667 200.587C58.4896 200.374 58.2057 200.303 57.9661 200.303C57.4693 200.303 56.9104 200.614 56.5999 201.031V204.021H55.8014ZM60.6703 203.772V202.938C61.1672 203.249 61.7882 203.399 62.3294 203.399C62.9327 203.399 63.3231 203.222 63.3231 202.796C63.3231 202.273 62.6931 202.264 62.0189 202.149C61.1849 202.007 60.5284 201.758 60.5284 200.898C60.5372 199.993 61.3091 199.558 62.3205 199.558C62.844 199.558 63.4473 199.673 63.882 199.904V200.702C63.394 200.418 62.7907 200.277 62.285 200.277C61.7261 200.277 61.3357 200.445 61.3357 200.835C61.3357 201.332 61.9568 201.332 62.6044 201.448C63.4384 201.59 64.1304 201.82 64.1304 202.725C64.1304 203.737 63.2255 204.118 62.2939 204.118C61.735 204.118 61.1228 204.003 60.6703 203.772ZM65.1686 204.021V200.374H64.4766V199.655H65.1686V198.821C65.1686 198.254 65.2485 197.81 65.559 197.508C65.8341 197.242 66.2067 197.145 66.5793 197.145C66.8277 197.145 67.085 197.189 67.2358 197.233V197.952C67.0673 197.908 66.7834 197.872 66.6148 197.872C66.0647 197.872 65.9671 198.245 65.9671 198.706V199.655H67.085V200.374H65.9671V204.021H65.1686ZM71.5198 202.069H68.184C68.2993 202.929 68.9381 203.399 69.7987 203.399C70.402 203.399 70.9077 203.16 71.3069 202.858V203.71C70.9165 203.958 70.3133 204.118 69.7454 204.118C68.3969 204.118 67.3855 203.213 67.3855 201.838C67.3855 200.463 68.388 199.558 69.5591 199.558C70.6238 199.558 71.5465 200.303 71.5465 201.669C71.5465 201.802 71.5376 201.962 71.5198 202.069ZM69.5414 200.277C68.9647 200.277 68.3437 200.631 68.2017 201.439H70.7746C70.7036 200.569 70.0648 200.277 69.5414 200.277ZM72.4202 204.021V199.655H73.2186V200.294L73.2364 200.303C73.538 199.877 74.0171 199.62 74.5317 199.62C74.6204 199.62 74.718 199.629 74.8156 199.655V200.445C74.7091 200.418 74.6027 200.41 74.5051 200.41C73.9107 200.41 73.4937 200.711 73.2186 201.181V204.021H72.4202Z"
            fill="#312011" />
        <rect x="160.229" y="191.248" width="15.7725" height="15.7725" rx="7.39337" fill="#F0F0EF" />
        <path d="M170.554 201.574L165.675 196.694" stroke="#312011" stroke-width="0.739336" stroke-linecap="round"
            stroke-linejoin="round" />
        <path d="M170.555 198.088V201.574L167.069 201.574" stroke="#312011" stroke-width="0.739336"
            stroke-linecap="round" stroke-linejoin="round" />
        <rect x="7.88672" y="223.355" width="176.455" height="135.545" rx="5.91469" fill="white" fill-opacity="0.08" />
        <path
            d="M15.8639 242.185V236.475H17.5279C18.1114 236.475 18.6793 236.514 19.1288 236.759C19.5941 237.011 19.9489 237.469 19.9489 238.147C19.9489 238.92 19.4836 239.519 18.6793 239.716L20.3985 242.185H19.2234L17.6304 239.827H16.8654V242.185H15.8639ZM16.8654 239.054H17.6619C18.1193 239.054 18.4269 238.991 18.6556 238.825C18.837 238.691 18.9474 238.494 18.9474 238.21C18.9474 237.871 18.7897 237.658 18.5373 237.524C18.2849 237.39 17.9695 237.366 17.4727 237.366H16.8654V239.054ZM24.0654 240.505H21.2658C21.3841 241.151 21.8967 241.483 22.5512 241.483C23.0402 241.483 23.4976 241.301 23.8761 241.033V241.909C23.5133 242.137 22.9613 242.271 22.4566 242.271C21.2106 242.271 20.2957 241.467 20.2957 240.252C20.2957 239.022 21.2184 238.218 22.2752 238.218C23.2373 238.218 24.089 238.872 24.089 240.118C24.089 240.245 24.0812 240.402 24.0654 240.505ZM22.2673 238.991C21.8257 238.991 21.3841 239.259 21.2658 239.842H23.1979C23.1269 239.259 22.7011 238.991 22.2673 238.991ZM27.8776 241.049V241.98C27.5228 242.177 27.0732 242.271 26.6632 242.271C25.4171 242.271 24.5181 241.42 24.5181 240.26C24.5181 239.046 25.496 238.218 26.7105 238.218C27.1284 238.218 27.5149 238.32 27.8146 238.47V239.401C27.4754 239.18 27.0969 239.046 26.7263 239.046C25.9771 239.046 25.4802 239.574 25.4802 240.252C25.4802 240.946 26.0007 241.435 26.742 241.435C27.1521 241.435 27.5701 241.293 27.8776 241.049ZM32.0715 240.505H29.2718C29.3901 241.151 29.9027 241.483 30.5573 241.483C31.0463 241.483 31.5037 241.301 31.8822 241.033V241.909C31.5194 242.137 30.9674 242.271 30.4627 242.271C29.2166 242.271 28.3018 241.467 28.3018 240.252C28.3018 239.022 29.2245 238.218 30.2813 238.218C31.2434 238.218 32.0951 238.872 32.0951 240.118C32.0951 240.245 32.0872 240.402 32.0715 240.505ZM30.2734 238.991C29.8318 238.991 29.3901 239.259 29.2718 239.842H31.204C31.133 239.259 30.7071 238.991 30.2734 238.991ZM32.7765 242.185V238.305H33.7229V238.723L33.7387 238.73C34.062 238.439 34.5036 238.218 35.0162 238.218C35.4342 238.218 35.797 238.36 36.0415 238.628C36.2702 238.872 36.3727 239.196 36.3727 239.771V242.185H35.4184V239.937C35.4184 239.59 35.3711 239.401 35.2607 239.275C35.1424 239.133 34.9689 239.062 34.7481 239.062C34.3696 239.062 33.9753 239.282 33.7308 239.551V242.185H32.7765ZM37.853 241.893C37.6558 241.68 37.5375 241.357 37.5375 240.781V239.117H36.8593V238.305H37.5375V237.271L38.4917 237.106V238.305H39.5879V239.117H38.4917V240.647C38.4917 241.08 38.5706 241.443 39.0043 241.443C39.2094 241.443 39.4302 241.364 39.5879 241.278V242.09C39.4144 242.192 39.099 242.271 38.7993 242.271C38.4602 242.271 38.0974 242.169 37.853 241.893ZM42.4319 241.893C42.2348 241.68 42.1165 241.357 42.1165 240.781V239.117H41.4382V238.305H42.1165V237.271L43.0707 237.106V238.305H44.1669V239.117H43.0707V240.647C43.0707 241.08 43.1496 241.443 43.5833 241.443C43.7884 241.443 44.0092 241.364 44.1669 241.278V242.09C43.9934 242.192 43.6779 242.271 43.3783 242.271C43.0392 242.271 42.6764 242.169 42.4319 241.893ZM44.7378 242.185V238.305H45.6841V238.849L45.6999 238.857C45.968 238.478 46.3702 238.265 46.8276 238.265C46.9144 238.265 47.0011 238.273 47.0879 238.297V239.211C46.9933 239.188 46.8986 239.172 46.7724 239.172C46.3229 239.172 45.9602 239.369 45.692 239.748V242.185H44.7378ZM48.4693 242.271C48.1538 242.271 47.8305 242.2 47.5702 242.011C47.3021 241.814 47.1365 241.506 47.1365 241.12C47.1365 240.694 47.3415 240.379 47.6333 240.181C47.9251 239.984 48.3194 239.913 48.7216 239.913C48.9898 239.913 49.2342 239.945 49.4708 240V239.771C49.4708 239.535 49.4077 239.361 49.2816 239.243C49.1396 239.117 48.9188 239.054 48.627 239.054C48.1617 239.054 47.7595 239.211 47.4598 239.401V238.533C47.7674 238.36 48.2169 238.218 48.769 238.218C49.2737 238.218 49.7232 238.336 50.015 238.581C50.2752 238.801 50.4251 239.133 50.4251 239.614V241.104C50.4251 241.317 50.5039 241.467 50.6932 241.467C50.7642 241.467 50.843 241.443 50.9061 241.412V242.161C50.7878 242.216 50.6222 242.256 50.433 242.256C50.1175 242.256 49.8178 242.145 49.6364 241.901H49.6207C49.3841 242.09 48.9819 242.271 48.4693 242.271ZM48.7059 241.514C48.9977 241.514 49.2816 241.412 49.4708 241.278V240.623C49.2973 240.576 49.0607 240.544 48.8715 240.544C48.4772 240.544 48.0907 240.67 48.0907 241.049C48.0907 241.364 48.3668 241.514 48.7059 241.514ZM51.373 242.185V238.305H52.3194V238.723L52.3351 238.73C52.6585 238.439 53.1001 238.218 53.6127 238.218C54.0307 238.218 54.3935 238.36 54.6379 238.628C54.8666 238.872 54.9692 239.196 54.9692 239.771V242.185H54.0149V239.937C54.0149 239.59 53.9676 239.401 53.8572 239.275C53.7389 239.133 53.5654 239.062 53.3446 239.062C52.966 239.062 52.5717 239.282 52.3273 239.551V242.185H51.373ZM55.7554 241.972V241.065C56.2286 241.349 56.8201 241.491 57.2459 241.491C57.6797 241.491 57.9557 241.357 57.9557 241.08C57.9557 240.686 57.4589 240.702 56.8674 240.584C56.1261 240.426 55.6135 240.158 55.6135 239.456C55.6214 238.644 56.3311 238.218 57.2617 238.218C57.727 238.218 58.279 238.32 58.697 238.525V239.401C58.2238 239.125 57.656 238.999 57.2538 238.999C56.8516 238.999 56.5835 239.117 56.5835 239.377C56.5835 239.748 57.0646 239.732 57.6481 239.858C58.3894 240.008 58.9257 240.26 58.9257 241.002C58.9178 241.838 58.1923 242.271 57.2302 242.271C56.7491 242.271 56.1813 242.169 55.7554 241.972ZM60.6286 242.271C60.3131 242.271 59.9898 242.2 59.7296 242.011C59.4614 241.814 59.2958 241.506 59.2958 241.12C59.2958 240.694 59.5009 240.379 59.7926 240.181C60.0844 239.984 60.4788 239.913 60.8809 239.913C61.1491 239.913 61.3936 239.945 61.6301 240V239.771C61.6301 239.535 61.5671 239.361 61.4409 239.243C61.2989 239.117 61.0781 239.054 60.7863 239.054C60.321 239.054 59.9188 239.211 59.6191 239.401V238.533C59.9267 238.36 60.3762 238.218 60.9283 238.218C61.433 238.218 61.8825 238.336 62.1743 238.581C62.4345 238.801 62.5844 239.133 62.5844 239.614V241.104C62.5844 241.317 62.6632 241.467 62.8525 241.467C62.9235 241.467 63.0024 241.443 63.0654 241.412V242.161C62.9471 242.216 62.7815 242.256 62.5923 242.256C62.2768 242.256 61.9771 242.145 61.7958 241.901H61.78C61.5434 242.09 61.1412 242.271 60.6286 242.271ZM60.8652 241.514C61.157 241.514 61.4409 241.412 61.6301 241.278V240.623C61.4566 240.576 61.2201 240.544 61.0308 240.544C60.6365 240.544 60.25 240.67 60.25 241.049C60.25 241.364 60.5261 241.514 60.8652 241.514ZM66.6395 241.049V241.98C66.2846 242.177 65.8351 242.271 65.425 242.271C64.179 242.271 63.28 241.42 63.28 240.26C63.28 239.046 64.2579 238.218 65.4724 238.218C65.8903 238.218 66.2767 238.32 66.5764 238.47V239.401C66.2373 239.18 65.8588 239.046 65.4881 239.046C64.7389 239.046 64.2421 239.574 64.2421 240.252C64.2421 240.946 64.7626 241.435 65.5039 241.435C65.914 241.435 66.332 241.293 66.6395 241.049ZM67.9464 241.893C67.7493 241.68 67.631 241.357 67.631 240.781V239.117H66.9528V238.305H67.631V237.271L68.5852 237.106V238.305H69.6814V239.117H68.5852V240.647C68.5852 241.08 68.6641 241.443 69.0978 241.443C69.3029 241.443 69.5237 241.364 69.6814 241.278V242.09C69.5079 242.192 69.1924 242.271 68.8928 242.271C68.5537 242.271 68.1909 242.169 67.9464 241.893ZM70.2523 242.185V238.305H71.2065V242.185H70.2523ZM70.134 237.019C70.134 236.696 70.4021 236.428 70.7333 236.428C71.0567 236.428 71.3248 236.696 71.3248 237.019C71.3248 237.342 71.0567 237.611 70.7255 237.611C70.4021 237.611 70.134 237.342 70.134 237.019ZM72.7893 240.245C72.7893 240.915 73.2782 241.435 73.9406 241.435C74.6031 241.435 75.092 240.915 75.092 240.245C75.092 239.574 74.6031 239.054 73.9406 239.054C73.2782 239.054 72.7893 239.574 72.7893 240.245ZM71.835 240.245C71.835 239.101 72.7341 238.218 73.9406 238.218C75.1472 238.218 76.0463 239.101 76.0463 240.245C76.0463 241.388 75.1472 242.271 73.9406 242.271C72.7341 242.271 71.835 241.388 71.835 240.245ZM76.6796 242.185V238.305H77.6259V238.723L77.6417 238.73C77.965 238.439 78.4067 238.218 78.9193 238.218C79.3373 238.218 79.7 238.36 79.9445 238.628C80.1732 238.872 80.2757 239.196 80.2757 239.771V242.185H79.3215V239.937C79.3215 239.59 79.2742 239.401 79.1638 239.275C79.0455 239.133 78.872 239.062 78.6511 239.062C78.2726 239.062 77.8783 239.282 77.6338 239.551V242.185H76.6796ZM81.062 241.972V241.065C81.5352 241.349 82.1266 241.491 82.5525 241.491C82.9862 241.491 83.2623 241.357 83.2623 241.08C83.2623 240.686 82.7654 240.702 82.174 240.584C81.4327 240.426 80.92 240.158 80.92 239.456C80.9279 238.644 81.6377 238.218 82.5683 238.218C83.0336 238.218 83.5856 238.32 84.0036 238.525V239.401C83.5304 239.125 82.9626 238.999 82.5604 238.999C82.1582 238.999 81.8901 239.117 81.8901 239.377C81.8901 239.748 82.3711 239.732 82.9547 239.858C83.696 240.008 84.2323 240.26 84.2323 241.002C84.2244 241.838 83.4989 242.271 82.5367 242.271C82.0557 242.271 81.4879 242.169 81.062 241.972Z"
            fill="white" />
        <rect x="15.2803" y="254.043" width="17.7441" height="17.7441" rx="8.87204" fill="#F9C698" />
        <path d="M25.501 262.519L26.4529 261.567L25.501 260.615" stroke="#53371D" stroke-width="0.485755"
            stroke-linecap="round" stroke-linejoin="round" />
        <path d="M21.8525 261.568H26.4529" stroke="#53371D" stroke-width="0.485755" stroke-linecap="round"
            stroke-linejoin="round" />
        <path d="M22.8045 263.312L21.8525 264.264L22.8045 265.216" stroke="#53371D" stroke-width="0.485755"
            stroke-linecap="round" stroke-linejoin="round" />
        <path d="M26.4529 264.263H21.8525" stroke="#53371D" stroke-width="0.485755" stroke-linecap="round"
            stroke-linejoin="round" />
        <path
            d="M40.2919 260.43H39.4432V255.434H40.2712L42.0792 257.842C42.3897 258.256 42.6795 258.649 42.9693 259.05L42.9831 259.043C42.9693 258.573 42.9693 258.063 42.9693 257.531V255.434H43.8181V260.43H42.99L41.1821 258.021C40.8716 257.607 40.5818 257.214 40.2919 256.814L40.2781 256.821C40.2919 257.29 40.2919 257.801 40.2919 258.332V260.43ZM44.9724 260.147C44.7653 259.919 44.6687 259.609 44.6687 259.119V257.035H45.5037V258.981C45.5037 259.284 45.552 259.464 45.6555 259.581C45.7797 259.726 45.9453 259.767 46.104 259.767C46.4353 259.767 46.7596 259.581 46.9873 259.326V257.035H47.8223V260.43H46.9942V260.057L46.9804 260.05C46.6975 260.312 46.3317 260.506 45.8763 260.506C45.5037 260.506 45.1794 260.374 44.9724 260.147ZM48.6685 260.43V255.158H49.5034V260.43H48.6685ZM50.3432 260.43V255.158H51.1781V260.43H50.3432ZM52.9495 260.506C52.6734 260.506 52.3905 260.443 52.1628 260.278C51.9282 260.105 51.7833 259.836 51.7833 259.498C51.7833 259.125 51.9627 258.849 52.218 258.677C52.4733 258.504 52.8184 258.442 53.1703 258.442C53.4049 258.442 53.6188 258.47 53.8258 258.518V258.318C53.8258 258.111 53.7706 257.959 53.6602 257.856C53.536 257.745 53.3428 257.69 53.0875 257.69C52.6803 257.69 52.3284 257.828 52.0662 257.994V257.235C52.3353 257.083 52.7286 256.959 53.2117 256.959C53.6533 256.959 54.0466 257.062 54.302 257.276C54.5297 257.469 54.6608 257.759 54.6608 258.18V259.484C54.6608 259.671 54.7298 259.802 54.8954 259.802C54.9575 259.802 55.0265 259.781 55.0817 259.753V260.409C54.9782 260.457 54.8333 260.492 54.6677 260.492C54.3917 260.492 54.1294 260.395 53.9707 260.181H53.9569C53.7499 260.347 53.398 260.506 52.9495 260.506ZM53.1565 259.843C53.4118 259.843 53.6602 259.753 53.8258 259.636V259.063C53.674 259.022 53.467 258.994 53.3014 258.994C52.9564 258.994 52.6182 259.105 52.6182 259.436C52.6182 259.712 52.8598 259.843 53.1565 259.843ZM60.086 260.43V258.442C60.086 258.153 60.0377 257.994 59.9341 257.877C59.8237 257.752 59.6788 257.697 59.4994 257.697C59.182 257.697 58.8577 257.883 58.6507 258.097C58.6576 258.159 58.6576 258.228 58.6576 258.304V260.43H57.8226V258.442C57.8226 258.146 57.7881 257.994 57.6846 257.877C57.5673 257.745 57.4086 257.697 57.243 257.697C56.9255 257.697 56.6012 257.89 56.3942 258.104V260.43H55.5592V257.035H56.3873V257.393L56.4011 257.4C56.6771 257.145 57.0497 256.959 57.4845 256.959C57.8847 256.959 58.2987 257.117 58.4988 257.49C58.8784 257.138 59.2993 256.959 59.7409 256.959C60.1136 256.959 60.4172 257.083 60.6242 257.304C60.8312 257.531 60.9209 257.828 60.9209 258.304V260.43H60.086ZM64.2002 260.506C63.9242 260.506 63.6413 260.443 63.4135 260.278C63.1789 260.105 63.034 259.836 63.034 259.498C63.034 259.125 63.2134 258.849 63.4688 258.677C63.7241 258.504 64.0691 258.442 64.421 258.442C64.6556 258.442 64.8695 258.47 65.0766 258.518V258.318C65.0766 258.111 65.0214 257.959 64.911 257.856C64.7867 257.745 64.5935 257.69 64.3382 257.69C63.9311 257.69 63.5792 257.828 63.3169 257.994V257.235C63.5861 257.083 63.9794 256.959 64.4624 256.959C64.904 256.959 65.2974 257.062 65.5527 257.276C65.7804 257.469 65.9115 257.759 65.9115 258.18V259.484C65.9115 259.671 65.9805 259.802 66.1461 259.802C66.2082 259.802 66.2772 259.781 66.3324 259.753V260.409C66.2289 260.457 66.084 260.492 65.9184 260.492C65.6424 260.492 65.3802 260.395 65.2215 260.181H65.2077C65.0007 260.347 64.6487 260.506 64.2002 260.506ZM64.4072 259.843C64.6625 259.843 64.911 259.753 65.0766 259.636V259.063C64.9248 259.022 64.7177 258.994 64.5521 258.994C64.2071 258.994 63.869 259.105 63.869 259.436C63.869 259.712 64.1105 259.843 64.4072 259.843ZM66.6099 258.794C66.6099 257.739 67.362 256.959 68.404 256.959C68.7007 256.959 68.9353 257.021 69.1354 257.111L69.1492 257.104V255.158H69.9842V260.43H69.1561V260.236L69.1423 260.23C68.9146 260.388 68.6041 260.506 68.2384 260.506C67.3482 260.506 66.6099 259.836 66.6099 258.794ZM67.4517 258.753C67.4517 259.339 67.8037 259.802 68.4109 259.802C68.6938 259.802 68.9491 259.698 69.1492 259.567V257.842C68.956 257.745 68.7145 257.669 68.4592 257.669C67.8244 257.669 67.4517 258.146 67.4517 258.753ZM70.823 260.43V257.035H71.658V260.43H70.823ZM70.7195 255.91C70.7195 255.627 70.9541 255.392 71.244 255.392C71.5269 255.392 71.7615 255.627 71.7615 255.91C71.7615 256.193 71.5269 256.427 71.2371 256.427C70.9541 256.427 70.7195 256.193 70.7195 255.91ZM73.3327 260.354V261.948H72.4978V257.035H73.3258V257.228L73.3396 257.235C73.5673 257.076 73.8709 256.959 74.2436 256.959C75.1337 256.959 75.8652 257.656 75.8652 258.711C75.8652 259.802 75.0785 260.506 74.0918 260.506C73.7881 260.506 73.5328 260.437 73.3465 260.347L73.3327 260.354ZM73.3327 259.622C73.5052 259.719 73.7605 259.809 74.0366 259.809C74.6438 259.809 75.0233 259.36 75.0233 258.76C75.0233 258.159 74.6507 257.676 74.0573 257.676C73.795 257.676 73.5328 257.766 73.3327 257.925V259.622ZM76.4973 260.43V257.035H77.3323V260.43H76.4973ZM76.3938 255.91C76.3938 255.627 76.6284 255.392 76.9183 255.392C77.2012 255.392 77.4358 255.627 77.4358 255.91C77.4358 256.193 77.2012 256.427 76.9114 256.427C76.6284 256.427 76.3938 256.193 76.3938 255.91ZM78.103 260.243V259.45C78.5171 259.698 79.0346 259.822 79.4072 259.822C79.7868 259.822 80.0283 259.705 80.0283 259.464C80.0283 259.119 79.5935 259.132 79.076 259.029C78.4274 258.891 77.9788 258.656 77.9788 258.042C77.9857 257.331 78.6068 256.959 79.421 256.959C79.8282 256.959 80.3112 257.048 80.6769 257.228V257.994C80.2629 257.752 79.7661 257.642 79.4141 257.642C79.0622 257.642 78.8276 257.745 78.8276 257.973C78.8276 258.297 79.2485 258.284 79.7592 258.394C80.4078 258.525 80.877 258.746 80.877 259.395C80.8701 260.126 80.2353 260.506 79.3934 260.506C78.9725 260.506 78.4757 260.416 78.103 260.243ZM84.2233 259.436V260.25C83.9128 260.423 83.5194 260.506 83.1606 260.506C82.0703 260.506 81.2837 259.76 81.2837 258.746C81.2837 257.683 82.1393 256.959 83.202 256.959C83.5677 256.959 83.9059 257.048 84.1681 257.18V257.994C83.8713 257.801 83.5401 257.683 83.2158 257.683C82.5603 257.683 82.1255 258.146 82.1255 258.739C82.1255 259.346 82.581 259.774 83.2296 259.774C83.5884 259.774 83.9542 259.65 84.2233 259.436ZM84.8976 260.43V257.035H85.7325V260.43H84.8976ZM84.7941 255.91C84.7941 255.627 85.0287 255.392 85.3185 255.392C85.6014 255.392 85.836 255.627 85.836 255.91C85.836 256.193 85.6014 256.427 85.3116 256.427C85.0287 256.427 84.7941 256.193 84.7941 255.91ZM86.5723 260.43V257.035H87.4003V257.4L87.4142 257.407C87.6971 257.152 88.0835 256.959 88.532 256.959C88.8978 256.959 89.2152 257.083 89.4291 257.318C89.6292 257.531 89.7189 257.814 89.7189 258.318V260.43H88.884V258.463C88.884 258.159 88.8425 257.994 88.7459 257.883C88.6424 257.759 88.4906 257.697 88.2974 257.697C87.9662 257.697 87.6212 257.89 87.4073 258.125V260.43H86.5723ZM90.7933 261.775V260.947C91.1246 261.161 91.511 261.292 91.8836 261.292C92.4633 261.292 92.8428 260.968 92.8428 260.395V260.181L92.829 260.167C92.6082 260.326 92.2838 260.416 91.9664 260.416C91.0901 260.416 90.3448 259.747 90.3448 258.739C90.3448 257.759 91.028 256.959 92.1044 256.959C92.4425 256.959 92.7255 257.035 92.9601 257.152L93.6777 257.028V260.388C93.6777 261.416 92.9739 262.024 91.9112 262.024C91.4834 262.024 91.0832 261.92 90.7933 261.775ZM91.1867 258.698C91.1867 259.284 91.5662 259.719 92.1458 259.719C92.3942 259.719 92.6634 259.636 92.8428 259.505V257.863C92.6634 257.759 92.4011 257.683 92.1458 257.683C91.5386 257.683 91.1867 258.146 91.1867 258.698Z"
            fill="white" />
        <path
            d="M39.0814 269.39L40.495 267.692C40.98 267.112 41.2107 266.74 41.2107 266.338C41.2107 265.841 40.8617 265.575 40.3649 265.575C40.0632 265.575 39.7084 265.675 39.4067 265.894V265.326C39.6256 265.184 39.9804 265.054 40.3945 265.054C41.1515 265.054 41.7726 265.486 41.7726 266.308C41.7726 266.894 41.4532 267.384 40.9504 267.988L40.2052 268.881L40.2111 268.893H41.9264V269.401H39.0873L39.0814 269.39ZM42.4559 269.07V268.425C42.8108 268.774 43.2248 268.946 43.627 268.946C44.1356 268.946 44.5024 268.674 44.5024 268.218C44.5024 267.798 44.2007 267.503 43.5915 267.503H43.1893V267.006H43.5738C44.112 267.006 44.4136 266.71 44.4136 266.29C44.4136 265.847 44.0765 265.575 43.5915 265.575C43.2721 265.575 42.9527 265.693 42.7102 265.864V265.291C42.9468 265.149 43.2721 265.054 43.6211 265.054C44.4018 265.054 44.9755 265.527 44.9755 266.237C44.9755 266.716 44.7094 267.083 44.2894 267.207V267.219C44.8218 267.331 45.0643 267.757 45.0643 268.23C45.0643 268.976 44.461 269.466 43.6329 269.466C43.1361 269.466 42.7043 269.289 42.4559 269.07ZM46.7906 269.342V268.81C47.0035 268.899 47.2224 268.946 47.3998 268.946C47.8612 268.946 47.9321 268.644 47.9321 268.189V265.119H48.494V268.159C48.494 268.668 48.4171 268.928 48.2693 269.112C48.0623 269.366 47.7547 269.466 47.4116 269.466C47.1514 269.466 46.9503 269.401 46.7906 269.342ZM49.5494 269.141C49.3838 268.946 49.3129 268.686 49.3129 268.272V266.491H49.8452V268.171C49.8452 268.491 49.8866 268.656 49.9871 268.774C50.1054 268.922 50.2769 268.976 50.4485 268.976C50.8093 268.976 51.1523 268.739 51.3593 268.479V266.491H51.8917V269.401H51.3593V269.035L51.3475 269.029C51.0932 269.283 50.7442 269.466 50.342 269.466C50.0463 269.466 49.7446 269.366 49.5494 269.141ZM52.7067 269.401V266.491H53.239V266.858L53.2508 266.864C53.5052 266.61 53.86 266.426 54.2682 266.426C54.5876 266.426 54.8596 266.539 55.043 266.746C55.2027 266.929 55.2855 267.154 55.2855 267.603V269.401H54.7532V267.704C54.7532 267.402 54.7118 267.225 54.6171 267.112C54.4988 266.97 54.3096 266.923 54.1499 266.923C53.8186 266.923 53.446 267.13 53.239 267.408V269.401H52.7067Z"
            fill="#CBCDD3" />
        <path
            d="M152.552 266.001L152.658 264.57C153.32 264.984 154.042 265.197 154.74 265.197C155.769 265.197 156.491 264.712 156.491 263.907C156.491 262.748 154.965 262.476 153.876 262.476C153.557 262.476 153.202 262.5 152.895 262.547L153.249 257.851H157.709L157.603 259.187H154.634L154.48 261.269C156.124 261.293 157.993 261.955 157.993 263.884C157.993 265.504 156.668 266.545 154.787 266.545C153.924 266.545 153.084 266.32 152.552 266.001ZM161.42 257.851H163.159L160.84 261.411L160.864 261.435C161.136 261.269 161.526 261.139 161.976 261.139C163.407 261.139 164.578 262.227 164.578 263.765C164.578 265.362 163.289 266.545 161.526 266.545C159.811 266.545 158.486 265.421 158.486 263.635C158.486 262.76 158.782 261.991 159.539 260.808L161.42 257.851ZM160.012 263.753C160.012 264.522 160.627 265.256 161.55 265.256C162.39 265.256 163.099 264.676 163.099 263.801C163.099 262.973 162.461 262.334 161.573 262.334C160.71 262.334 160.012 262.925 160.012 263.753Z"
            fill="white" />
        <path
            d="M166.595 265.981C166.595 265.697 166.832 265.461 167.115 265.461C167.399 265.461 167.636 265.697 167.636 265.981C167.636 266.265 167.399 266.502 167.115 266.502C166.832 266.502 166.595 266.265 166.595 265.981ZM168.878 266.415L170.983 261.384H168.31V260.705H172.032L172.04 260.721L169.659 266.415H168.878ZM172.637 264.814C172.637 264.144 172.999 263.615 173.622 263.402V263.387C173.086 263.166 172.794 262.756 172.794 262.18C172.794 261.289 173.496 260.619 174.553 260.619C175.61 260.619 176.312 261.289 176.312 262.18C176.312 262.756 176.02 263.166 175.484 263.387V263.402C176.107 263.615 176.469 264.144 176.469 264.814C176.469 265.784 175.712 266.502 174.553 266.502C173.394 266.502 172.637 265.784 172.637 264.814ZM174.553 263.142C175.129 263.142 175.602 262.756 175.602 262.212C175.602 261.668 175.144 261.281 174.553 261.281C173.961 261.281 173.504 261.668 173.504 262.212C173.504 262.756 173.977 263.142 174.553 263.142ZM173.378 264.798C173.378 265.421 173.898 265.839 174.553 265.839C175.208 265.839 175.728 265.421 175.728 264.798C175.728 264.175 175.2 263.742 174.553 263.742C173.906 263.742 173.378 264.175 173.378 264.798Z"
            fill="white" />
        <rect x="15.2803" y="276.223" width="161.668" height="0.492891" fill="#D9D9D9" fill-opacity="0.16" />
        <rect x="15.2803" y="281.152" width="17.7441" height="17.7441" rx="8.87204" fill="#F9C698" />
        <path
            d="M40.6991 287.539V283.323H39.0637V282.543H43.2246V283.323H41.5754V287.539H40.6991ZM46.0755 286.069H43.6258C43.7293 286.635 44.1778 286.925 44.7506 286.925C45.1784 286.925 45.5786 286.766 45.9098 286.532V287.298C45.5924 287.498 45.1094 287.615 44.6678 287.615C43.5775 287.615 42.777 286.911 42.777 285.848C42.777 284.772 43.5844 284.068 44.5091 284.068C45.3509 284.068 46.0962 284.641 46.0962 285.731C46.0962 285.842 46.0893 285.98 46.0755 286.069ZM44.5022 284.744C44.1157 284.744 43.7293 284.979 43.6258 285.49H45.3164C45.2543 284.979 44.8817 284.744 44.5022 284.744ZM51.2881 287.539V285.552C51.2881 285.262 51.2398 285.103 51.1363 284.986C51.0259 284.862 50.881 284.806 50.7016 284.806C50.3842 284.806 50.0598 284.993 49.8528 285.207C49.8597 285.269 49.8597 285.338 49.8597 285.414V287.539H49.0248V285.552C49.0248 285.255 48.9903 285.103 48.8868 284.986C48.7694 284.855 48.6107 284.806 48.4451 284.806C48.1277 284.806 47.8034 285 47.5964 285.214V287.539H46.7614V284.144H47.5895V284.503L47.6033 284.51C47.8793 284.254 48.2519 284.068 48.6866 284.068C49.0869 284.068 49.5009 284.227 49.701 284.599C50.0805 284.248 50.5015 284.068 50.9431 284.068C51.3157 284.068 51.6193 284.192 51.8264 284.413C52.0334 284.641 52.1231 284.938 52.1231 285.414V287.539H51.2881ZM53.786 287.463V289.057H52.9511V284.144H53.7791V284.337L53.7929 284.344C54.0207 284.185 54.3243 284.068 54.6969 284.068C55.5871 284.068 56.3185 284.765 56.3185 285.821C56.3185 286.911 55.5319 287.615 54.5451 287.615C54.2415 287.615 53.9862 287.546 53.7998 287.456L53.786 287.463ZM53.786 286.732C53.9586 286.828 54.2139 286.918 54.4899 286.918C55.0971 286.918 55.4767 286.469 55.4767 285.869C55.4767 285.269 55.104 284.786 54.5106 284.786C54.2484 284.786 53.9862 284.875 53.786 285.034V286.732ZM57.2474 287.256C57.0404 287.028 56.9438 286.718 56.9438 286.228V284.144H57.7787V286.09C57.7787 286.394 57.827 286.573 57.9305 286.69C58.0547 286.835 58.2203 286.877 58.3791 286.877C58.7103 286.877 59.0346 286.69 59.2623 286.435V284.144H60.0973V287.539H59.2692V287.166L59.2554 287.16C58.9725 287.422 58.6068 287.615 58.1513 287.615C57.7787 287.615 57.4544 287.484 57.2474 287.256ZM60.8745 287.353V286.559C61.2885 286.808 61.8061 286.932 62.1787 286.932C62.5582 286.932 62.7997 286.815 62.7997 286.573C62.7997 286.228 62.365 286.242 61.8475 286.138C61.1988 286 60.7503 285.766 60.7503 285.151C60.7572 284.441 61.3782 284.068 62.1925 284.068C62.5996 284.068 63.0826 284.158 63.4484 284.337V285.103C63.0343 284.862 62.5375 284.751 62.1856 284.751C61.8337 284.751 61.599 284.855 61.599 285.082C61.599 285.407 62.02 285.393 62.5306 285.503C63.1793 285.635 63.6485 285.855 63.6485 286.504C63.6416 287.235 63.0067 287.615 62.1649 287.615C61.744 287.615 61.2471 287.525 60.8745 287.353ZM68.8802 286.069H66.4305C66.534 286.635 66.9825 286.925 67.5553 286.925C67.9831 286.925 68.3833 286.766 68.7146 286.532V287.298C68.3971 287.498 67.9141 287.615 67.4725 287.615C66.3822 287.615 65.5818 286.911 65.5818 285.848C65.5818 284.772 66.3891 284.068 67.3138 284.068C68.1556 284.068 68.9009 284.641 68.9009 285.731C68.9009 285.842 68.894 285.98 68.8802 286.069ZM67.3069 284.744C66.9204 284.744 66.534 284.979 66.4305 285.49H68.1211C68.059 284.979 67.6864 284.744 67.3069 284.744ZM69.8145 288.885V288.057C70.1458 288.271 70.5322 288.402 70.9048 288.402C71.4845 288.402 71.864 288.077 71.864 287.505V287.291L71.8502 287.277C71.6294 287.436 71.305 287.525 70.9876 287.525C70.1113 287.525 69.366 286.856 69.366 285.848C69.366 284.869 70.0492 284.068 71.1256 284.068C71.4638 284.068 71.7467 284.144 71.9813 284.261L72.6989 284.137V287.498C72.6989 288.526 71.9951 289.133 70.9324 289.133C70.5046 289.133 70.1044 289.03 69.8145 288.885ZM70.2079 285.807C70.2079 286.394 70.5874 286.828 71.167 286.828C71.4155 286.828 71.6846 286.746 71.864 286.614V284.972C71.6846 284.869 71.4224 284.793 71.167 284.793C70.5598 284.793 70.2079 285.255 70.2079 285.807ZM76.63 286.069H74.1803C74.2838 286.635 74.7324 286.925 75.3051 286.925C75.7329 286.925 76.1332 286.766 76.4644 286.532V287.298C76.147 287.498 75.6639 287.615 75.2223 287.615C74.132 287.615 73.3316 286.911 73.3316 285.848C73.3316 284.772 74.1389 284.068 75.0636 284.068C75.9055 284.068 76.6507 284.641 76.6507 285.731C76.6507 285.842 76.6438 285.98 76.63 286.069ZM75.0567 284.744C74.6703 284.744 74.2838 284.979 74.1803 285.49H75.871C75.8088 284.979 75.4362 284.744 75.0567 284.744ZM77.7868 287.284C77.6143 287.097 77.5108 286.815 77.5108 286.311V284.855H76.9173V284.144H77.5108V283.24L78.3457 283.095V284.144H79.3049V284.855H78.3457V286.193C78.3457 286.573 78.4147 286.89 78.7943 286.89C78.9737 286.89 79.1669 286.821 79.3049 286.746V287.456C79.1531 287.546 78.8771 287.615 78.6149 287.615C78.3181 287.615 78.0007 287.525 77.7868 287.284Z"
            fill="white" />
        <path
            d="M146.067 291.573L146.055 291.549L150.443 284.96H151.804V290.354H153.211V291.573H151.804V293.524H150.325V291.573H146.067ZM149.343 288.698L148.255 290.33L148.267 290.354H150.325V288.84C150.325 288.284 150.337 287.657 150.349 287.196L150.325 287.184C150.053 287.622 149.674 288.201 149.343 288.698ZM153.619 293.11L153.726 291.679C154.388 292.093 155.11 292.306 155.808 292.306C156.837 292.306 157.558 291.821 157.558 291.017C157.558 289.857 156.032 289.585 154.944 289.585C154.625 289.585 154.27 289.609 153.962 289.656L154.317 284.96H158.777L158.67 286.297H155.701L155.547 288.379C157.192 288.402 159.061 289.065 159.061 290.993C159.061 292.614 157.736 293.655 155.855 293.655C154.991 293.655 154.151 293.43 153.619 293.11ZM159.601 293.11L159.707 291.679C160.37 292.093 161.091 292.306 161.789 292.306C162.818 292.306 163.54 291.821 163.54 291.017C163.54 289.857 162.014 289.585 160.926 289.585C160.606 289.585 160.251 289.609 159.944 289.656L160.299 284.96H164.758L164.652 286.297H161.683L161.529 288.379C163.173 288.402 165.042 289.065 165.042 290.993C165.042 292.614 163.717 293.655 161.837 293.655C160.973 293.655 160.133 293.43 159.601 293.11Z"
            fill="white" />
    </g>
    <path d="M1 16C1 7.71572 7.71573 1 16 1H176C184.284 1 191 7.71573 191 16V346H1V16Z" stroke="#757B8A"
        stroke-width="2" />
    <defs>
        <linearGradient id="paint0_linear_7564_47592" x1="79.0879" y1="44.5069" x2="131.801" y2="153.467"
            gradientUnits="userSpaceOnUse">
            <stop stop-color="#F9C79A" stop-opacity="0.21" />
            <stop offset="0.308469" stop-color="#F9C699" stop-opacity="0.343478" />
            <stop offset="0.500843" stop-color="#F8C496" stop-opacity="0.55" />
            <stop offset="0.722389" stop-color="#F5B073" stop-opacity="0.47" />
            <stop offset="1" stop-color="#EF8D36" stop-opacity="0.33" />
        </linearGradient>
        <linearGradient id="paint1_linear_7564_47592" x1="67.9949" y1="63.583" x2="99.8235" y2="151.845"
            gradientUnits="userSpaceOnUse">
            <stop offset="0.026625" stop-color="white" stop-opacity="0.15" />
            <stop offset="0.627945" stop-color="white" stop-opacity="0" />
            <stop offset="1" stop-color="white" stop-opacity="0.05" />
        </linearGradient>
        <clipPath id="clip0_7564_47592">
            <path d="M0 16C0 7.16344 7.16344 0 16 0H176C184.837 0 192 7.16344 192 16V347H0V16Z" fill="white" />
        </clipPath>
    </defs>
</svg>