<svg width="27" height="18" viewBox="0 0 27 18" fill="none" xmlns="http://www.w3.org/2000/svg">
    <path id="delete" fill-rule="evenodd" clip-rule="evenodd"
        d="M24.5557 0H8.45539C7.699 0 7.05067 0.3 6.61845 0.9L0.783447 9L6.61845 17.1C7.05067 17.6 7.699 18 8.45539 18H24.5557C25.7443 18 26.7168 17.1 26.7168 16V2C26.7168 0.9 25.7443 0 24.5557 0ZM21.314 12.6L19.8012 14L15.9112 10.4L12.0212 14L10.5084 12.6L14.3984 9L10.5084 5.4L12.0212 4L15.9112 7.6L19.8012 4L21.314 5.4L17.424 9L21.314 12.6Z"
        fill="#A3A7B1" />
</svg>