<svg width="20" height="20" viewBox="0 0 20 20" fill="none" xmlns="http://www.w3.org/2000/svg">
    <g clip-path="url(#clip0_3144_2907)">
        <g clip-path="url(#clip1_3144_2907)">
            <path
                d="M9.99992 3.75C5.83325 3.75 2.27492 6.34167 0.833252 10C2.27492 13.6583 5.83325 16.25 9.99992 16.25C14.1708 16.25 17.7249 13.6583 19.1666 10C17.7249 6.34167 14.1708 3.75 9.99992 3.75ZM9.99992 14.1667C7.69992 14.1667 5.83325 12.3 5.83325 10C5.83325 7.7 7.69992 5.83333 9.99992 5.83333C12.2999 5.83333 14.1666 7.7 14.1666 10C14.1666 12.3 12.2999 14.1667 9.99992 14.1667ZM9.99992 7.5C8.62075 7.5 7.49992 8.62083 7.49992 10C7.49992 11.3792 8.62075 12.5 9.99992 12.5C11.3791 12.5 12.4999 11.3792 12.4999 10C12.4999 8.62083 11.3791 7.5 9.99992 7.5Z"
                fill="#A3A7B1" />
        </g>
    </g>
    <defs>
        <clipPath id="clip0_3144_2907">
            <rect width="20" height="20" fill="white" />
        </clipPath>
        <clipPath id="clip1_3144_2907">
            <rect width="20" height="20" fill="white" />
        </clipPath>
    </defs>
</svg>