<svg width="48" height="48" viewBox="0 0 48 48" fill="none" xmlns="http://www.w3.org/2000/svg">
    <path fill-rule="evenodd" clip-rule="evenodd"
        d="M48 0H0V48H48V0ZM30.8049 19.8148C29.8175 18.3049 28.2076 17.3341 26.0776 17.3341C22.7529 17.3341 20.2071 19.7069 20.2071 23.6437C20.2071 27.5806 22.7529 30.6659 26.0776 30.6659C28.2076 30.6659 29.8175 29.5872 30.8049 28.1311L36 33.2002C34.4932 35.4649 31.1161 38 25.7141 38C17.9282 38 12 31.8415 12 23.6437C12 15.5004 17.87 10 25.7141 10C31.1161 10 34.4932 12.4807 36 14.8L30.8049 19.8148Z"
        fill="#F5A054" />
</svg>