<svg width="122" height="40" viewBox="0 0 122 40" fill="none" xmlns="http://www.w3.org/2000/svg">
    <mask id="mask0_7597_52372" style="mask-type:luminance" maskUnits="userSpaceOnUse" x="0" y="0" width="110"
        height="40">
        <path fill-rule="evenodd" clip-rule="evenodd" d="M0.719727 0H109.495V40H0.719727V0Z" fill="white" />
    </mask>
    <g mask="url(#mask0_7597_52372)">
        <path fill-rule="evenodd" clip-rule="evenodd"
            d="M100.637 28.972C99.8827 30.7484 97.7575 32.1452 95.4154 32.1452C91.7103 32.1452 88.8727 29.5398 88.8727 25.3136C88.8727 21.087 91.7103 18.5401 95.4154 18.5401C97.7575 18.5401 99.5326 19.5575 100.637 21.1413V28.972ZM100.637 12.2016C99.6862 11.4668 97.694 10.6643 95.0101 10.6643C86.2684 10.6643 79.7266 16.5699 79.7266 25.3118C79.7266 34.1112 85.489 40.0167 94.231 40.0167C96.781 40.0167 99.6676 38.9943 100.637 37.8778V39.3102H109.495V0L100.637 1.21112V12.2016Z"
            fill="white" />
        <path fill-rule="evenodd" clip-rule="evenodd"
            d="M57.7079 21.6464C58.0559 19.6202 59.5606 16.8403 63.4403 16.8403C67.5508 16.8403 68.9982 19.6778 69.229 21.6464H57.7079ZM63.44 9.95508C54.6971 9.95508 48.5605 16.497 48.5605 24.6018C48.5605 33.6917 55.219 40.0134 63.845 40.0134C67.7277 40.0134 72.2064 39.268 75.5383 36.5331L73.5879 29.2759C73.5879 29.2759 70.5964 33.1241 64.9447 33.1241C60.7769 33.1241 58.3447 30.0439 57.8236 27.4393H77.7387V25.5281C77.7387 16.0332 71.7182 9.95508 63.44 9.95508Z"
            fill="white" />
        <path fill-rule="evenodd" clip-rule="evenodd"
            d="M16.392 17.8293C18.7658 17.8293 20.5601 18.8715 21.6604 20.4923L27.4502 15.1089C25.7708 12.6191 22.0072 9.95605 15.987 9.95605C7.245 9.95605 0.703125 15.8608 0.703125 24.6028C0.703125 33.4032 7.30986 40.0144 15.987 40.0144C22.0072 40.0144 25.7708 37.2929 27.4502 34.8618L21.6604 29.42C20.5601 30.9832 18.7658 32.1411 16.392 32.1411C12.6868 32.1411 9.84956 28.829 9.84956 24.6028C9.84956 20.3765 12.6868 17.8293 16.392 17.8293Z"
            fill="white" />
    </g>
    <path fill-rule="evenodd" clip-rule="evenodd"
        d="M38.011 14.9827V10.2334L29.0947 11.4509V39.4135H38.011V23.5131C41.8041 19.0569 46.7529 19.3812 46.7529 19.3812L48.5043 10.7553C43.9054 10.7553 39.8637 12.7249 38.011 14.9827Z"
        fill="white" />
    <path fill-rule="evenodd" clip-rule="evenodd"
        d="M116.618 29.9893C114.09 29.9893 111.957 32.122 111.957 34.6514C111.957 37.1805 114.09 39.3136 116.618 39.3136C119.149 39.3136 121.281 37.1805 121.281 34.6514C121.281 32.122 119.149 29.9893 116.618 29.9893Z"
        fill="#F5A054" />
</svg>