<svg width="78" height="76" viewBox="0 0 78 76" fill="none" xmlns="http://www.w3.org/2000/svg">
    <g id="icon64/doc">
        <rect id="Rectangle 104" y="2" width="54" height="54" rx="27" fill="#434B60" />
        <path id="Vector 1"
            d="M75.8389 59.9336H33.7956C33.7956 63.5757 31.273 66.9695 30.0117 68.2111L67.0098 68.625L71.2141 67.3833L74.998 63.6585L75.8389 59.9336Z"
            fill="#D1D3D8" />
        <circle id="Ellipse 35" cx="15.5799" cy="20.7869" r="1.58025" transform="rotate(180 15.5799 20.7869)"
            fill="white" />
        <path id="Rectangle 89"
            d="M69.5184 59.9354V49.2688V11.5157C69.5184 9.68836 68.0371 8.20703 66.2098 8.20703H19.0987C17.2714 8.20703 15.79 9.68836 15.79 11.5157L15.79 14.207M15.79 59.9354V27.707"
            stroke="#D1D3D8" stroke-width="3.30864" stroke-linecap="round" />
        <path id="Ellipse 46"
            d="M32.3826 60.332C32.3826 64.9139 28.6683 68.6283 24.0863 68.6283C19.5044 68.6283 15.79 64.9139 15.79 60.332M75.4444 60.332C75.4444 64.9139 71.73 68.6283 67.1481 68.6283"
            stroke="#D1D3D8" stroke-width="3.30864" stroke-linecap="round" />
        <line id="Line 1" x1="32.3828" y1="60.2558" x2="75.8396" y2="60.2558" stroke="#D1D3D8" stroke-width="3.30864" />
        <line id="Line 3" x1="26.9258" y1="43.2676" x2="58.3826" y2="43.2676" stroke="#F5A054" stroke-width="3.30864"
            stroke-linecap="round" />
        <line id="Line 4" x1="26.9258" y1="49.5918" x2="44.1604" y2="49.5918" stroke="#F5A054" stroke-width="3.30864"
            stroke-linecap="round" />
        <line id="Line 2" x1="23.6914" y1="68.5527" x2="67.1482" y2="68.5527" stroke="#D1D3D8" stroke-width="3.30864" />
    </g>
</svg>