<svg width="75" height="73" viewBox="0 0 75 73" fill="none" xmlns="http://www.w3.org/2000/svg">
    <rect y="19" width="54" height="54" rx="27" fill="#D1D3D8" fill-opacity="0.23" />
    <path
        d="M72.5 10V7C72.5 4.23858 70.2614 2 67.5 2L20 2C17.2386 2 15 4.23858 15 7L15 49.531C15 54.1674 20.7635 56.3069 23.7888 52.7936L29.0039 46.7374C29.9538 45.6343 31.3371 45 32.7928 45H67.5C70.2614 45 72.5 42.7614 72.5 40V21.5"
        stroke="#D1D3D8" stroke-width="3.3" stroke-linecap="round" />
    <path
        d="M72.5 10V7C72.5 4.23858 70.2614 2 67.5 2L20 2C17.2386 2 15 4.23858 15 7L15 49.531C15 54.1674 20.7635 56.3069 23.7888 52.7936L29.0039 46.7374C29.9538 45.6343 31.3371 45 32.7928 45H67.5C70.2614 45 72.5 42.7614 72.5 40V21.5"
        stroke="white" stroke-width="3.3" stroke-linecap="round" />
    <ellipse cx="72.6498" cy="15.6508" rx="1.65" ry="1.65" transform="rotate(180 72.6498 15.6508)" fill="white" />
    <path fill-rule="evenodd" clip-rule="evenodd"
        d="M40.4512 26.0916C40.037 26.809 40.2828 27.7264 41.0002 28.1406C41.7176 28.5548 42.635 28.309 43.0492 27.5916L43.9995 25.9457L44.9508 27.5933C45.365 28.3107 46.2824 28.5565 46.9998 28.1423C47.7172 27.7281 47.963 26.8107 47.5488 26.0933L46.5974 24.4453H48.5C49.3284 24.4453 50 23.7738 50 22.9453C50 22.1169 49.3284 21.4453 48.5 21.4453H46.5978L47.5492 19.7974C47.9635 19.0799 47.7176 18.1625 47.0002 17.7483C46.2828 17.3341 45.3654 17.5799 44.9512 18.2974L43.9995 19.9457L43.0488 18.2991C42.6346 17.5816 41.7172 17.3358 40.9998 17.75C40.2824 18.1642 40.0365 19.0816 40.4508 19.7991L41.4012 21.4453H39.5C38.6716 21.4453 38 22.1169 38 22.9453C38 23.7738 38.6716 24.4453 39.5 24.4453H41.4016L40.4512 26.0916Z"
        fill="#F5A054" />
    <path fill-rule="evenodd" clip-rule="evenodd"
        d="M25.4512 26.0916C25.037 26.809 25.2828 27.7264 26.0002 28.1406C26.7176 28.5548 27.635 28.309 28.0492 27.5916L28.9995 25.9457L29.9508 27.5933C30.365 28.3107 31.2824 28.5565 31.9998 28.1423C32.7172 27.7281 32.963 26.8107 32.5488 26.0933L31.5974 24.4453H33.5C34.3284 24.4453 35 23.7738 35 22.9453C35 22.1169 34.3284 21.4453 33.5 21.4453H31.5978L32.5492 19.7974C32.9635 19.0799 32.7176 18.1625 32.0002 17.7483C31.2828 17.3341 30.3654 17.5799 29.9512 18.2974L28.9995 19.9457L28.0488 18.2991C27.6346 17.5816 26.7172 17.3358 25.9998 17.75C25.2824 18.1642 25.0365 19.0816 25.4508 19.7991L26.4012 21.4453H24.5C23.6716 21.4453 23 22.1169 23 22.9453C23 23.7738 23.6716 24.4453 24.5 24.4453H26.4016L25.4512 26.0916Z"
        fill="#F5A054" />
    <path fill-rule="evenodd" clip-rule="evenodd"
        d="M55.4512 26.0916C55.037 26.809 55.2828 27.7264 56.0002 28.1406C56.7176 28.5548 57.635 28.309 58.0492 27.5916L58.9995 25.9457L59.9508 27.5933C60.365 28.3107 61.2824 28.5565 61.9998 28.1423C62.7172 27.7281 62.963 26.8107 62.5488 26.0933L61.5974 24.4453H63.5C64.3284 24.4453 65 23.7738 65 22.9453C65 22.1169 64.3284 21.4453 63.5 21.4453H61.5978L62.5492 19.7974C62.9635 19.0799 62.7176 18.1625 62.0002 17.7483C61.2828 17.3341 60.3654 17.5799 59.9512 18.2974L58.9995 19.9457L58.0488 18.2991C57.6346 17.5816 56.7172 17.3358 55.9998 17.75C55.2824 18.1642 55.0365 19.0816 55.4508 19.7991L56.4012 21.4453H54.5C53.6716 21.4453 53 22.1169 53 22.9453C53 23.7738 53.6716 24.4453 54.5 24.4453H56.4016L55.4512 26.0916Z"
        fill="#F5A054" />
</svg>