<svg width="190" height="190" viewBox="0 0 190 190" fill="none" xmlns="http://www.w3.org/2000/svg">
    <circle cx="95" cy="95" r="95" fill="#F5A054" />
    <circle cx="149.965" cy="86.9653" r="2.25" transform="rotate(113.729 149.965 86.9653)" fill="#C9874F" />
    <circle cx="145.965" cy="41.9668" r="2.25" transform="rotate(113.729 145.965 41.9668)" fill="#E58F42" />
    <circle cx="41.9655" cy="87.9653" r="2.25" transform="rotate(113.729 41.9655 87.9653)" fill="#19233C"
        fill-opacity="0.3" />
    <circle cx="157.965" cy="144.965" r="2.25" transform="rotate(113.729 157.965 144.965)" fill="#19233C"
        fill-opacity="0.2" />
    <circle cx="95" cy="90" r="60" fill="#E58F42" />
    <circle cx="128.965" cy="30.9653" r="2.25" transform="rotate(113.729 128.965 30.9653)" fill="#19233C"
        fill-opacity="0.4" />
    <circle cx="59.9655" cy="30.9653" r="2.25" transform="rotate(113.729 59.9655 30.9653)" fill="#19233C"
        fill-opacity="0.4" />
    <circle cx="58.9655" cy="104.965" r="2.25" transform="rotate(113.729 58.9655 104.965)" fill="#19233C"
        fill-opacity="0.3" />
    <circle cx="61.9655" cy="130.967" r="2.25" transform="rotate(113.729 61.9655 130.967)" fill="#19233C"
        fill-opacity="0.3" />
    <circle cx="44.9655" cy="150.965" r="2.25" transform="rotate(113.729 44.9655 150.965)" fill="#19233C"
        fill-opacity="0.3" />
    <circle cx="31.9655" cy="116.965" r="2.25" transform="rotate(113.729 31.9655 116.965)" fill="#19233C"
        fill-opacity="0.3" />
    <path
        d="M79 126H130.376C130.376 130.61 133.459 134.905 135 136.476L89.789 137L84.6514 135.429L80.0275 130.714L79 126Z"
        fill="white" />
    <path
        d="M85.054 126H133.628C133.628 130.61 136.543 134.905 138 136.476L95.2546 137L94.3686 135.429C94.3686 135.429 88.4542 135.429 86.5112 131.762C84.5682 128.095 85.054 126 85.054 126Z"
        fill="#768DC6" />
    <path d="M154 58H85V125H131.5L135 134H150.5L154 126.5V58Z" fill="white" />
    <path d="M128 85C126.246 87.9664 122.651 90 118.5 90C114.349 90 110.754 87.9664 109 85" stroke="#19233C"
        stroke-width="4" stroke-linecap="round" />
    <circle cx="3" cy="3" r="3" transform="matrix(-1 0 0 1 134 70)" fill="#19233C" />
    <circle cx="3" cy="3" r="3" transform="matrix(-1 0 0 1 109 70)" fill="#19233C" />
    <circle cx="2" cy="2" r="2" transform="matrix(1 8.74228e-08 8.74228e-08 -1 83 73)" fill="#19233C" />
    <path d="M85 125V111.5M153 125L153 61C153 58.7909 151.209 57 149 57H89C86.7909 57 85 58.7909 85 61V65.5"
        stroke="#19233C" stroke-width="4" stroke-linecap="round" />
    <path
        d="M132 125.5C132 131.299 136.701 136 142.5 136C148.299 136 153 131.299 153 125.5M77.5 125.5C77.5 131.299 82.201 136 88 136"
        stroke="#19233C" stroke-width="4" stroke-linecap="round" />
    <line y1="-2" x2="55" y2="-2" transform="matrix(-1 0 0 1 132 127.5)" stroke="#19233C" stroke-width="4" />
    <line x1="2" y1="-2" x2="42" y2="-2" transform="matrix(-1 0 0 1 141 106)" stroke="#19233C" stroke-width="4"
        stroke-linecap="round" />
    <line x1="2" y1="-2" x2="24" y2="-2" transform="matrix(-1 0 0 1 123 114)" stroke="#19233C" stroke-width="4"
        stroke-linecap="round" />
    <line y1="-2" x2="55" y2="-2" transform="matrix(-1 0 0 1 143 138)" stroke="#19233C" stroke-width="4" />
    <path fill-rule="evenodd" clip-rule="evenodd"
        d="M75.212 65.5612C74.9205 67.2139 74.4376 68.9537 73.6741 70.7307C72.5571 66.4196 72.1762 62.7161 66.9301 58.9949C65.0059 57.8558 62.9541 56.866 60.7784 56.0717C52.3088 52.9742 44.5426 50.8577 38.4674 44C36.4375 48.9314 36.6816 55.1191 38.1758 61.2127C40.173 67.141 43.7281 68.6853 47.6476 71.0879C45.43 71.2105 43.3746 71.0364 41.4959 70.7041C43.1468 74.3382 45.0947 77.624 47.0663 80.1972C52.9338 87.4477 58.0287 87.4583 64.0875 88.4179C62.4858 89.3136 60.8932 90.0049 59.3316 90.5575C64.6542 93.6088 80.0827 96.8057 86.486 97.9519C86.5242 98.0106 86.5315 98.0212 86.486 97.9519C88.7127 90.7015 83.4757 74.1018 75.212 65.5612Z"
        fill="white" />
    <path fill-rule="evenodd" clip-rule="evenodd"
        d="M76.1551 65.5612C75.8868 67.2139 75.4426 68.9537 74.7402 70.7307C73.7125 66.4196 73.3621 62.7161 68.5357 58.9949C66.7654 57.8558 64.8778 56.866 62.8761 56.0717C55.0841 52.9742 47.9392 50.8577 42.35 44C40.4825 48.9314 40.7071 55.1191 42.0818 61.2127C43.9191 67.141 47.1898 68.6853 50.7958 71.0879C48.7556 71.2105 46.8646 71.0364 45.1362 70.7041C46.655 74.3382 48.4471 77.624 50.261 80.1972C55.6591 87.4477 60.3464 87.4583 65.9205 88.4179C64.4469 89.3136 62.9817 90.0049 61.545 90.5575C66.4419 93.6088 80.6361 96.8057 86.5271 97.9519C86.5623 98.0106 86.569 98.0212 86.5271 97.9519C88.5757 90.7015 83.7576 74.1018 76.1551 65.5612Z"
        fill="#768DC6" />
    <path fill-rule="evenodd" clip-rule="evenodd"
        d="M75.212 65.5612C74.9205 67.2139 74.4376 68.9537 73.6741 70.7307C72.5571 66.4196 72.1762 62.7161 66.9301 58.9949C65.0059 57.8558 62.9541 56.866 60.7784 56.0717C52.3088 52.9742 44.5426 50.8577 38.4674 44C36.4375 48.9314 36.6816 55.1191 38.1758 61.2127C40.173 67.141 43.7281 68.6853 47.6476 71.0879C45.43 71.2105 43.3746 71.0364 41.4959 70.7041C43.1468 74.3382 45.0947 77.624 47.0663 80.1972C52.9338 87.4477 58.0287 87.4583 64.0875 88.4179C62.4858 89.3136 60.8932 90.0049 59.3316 90.5575C64.6542 93.6088 80.0827 96.8057 86.486 97.9519C86.5315 98.0212 86.5242 98.0106 86.486 97.9519C88.7127 90.7015 83.4757 74.1018 75.212 65.5612Z"
        stroke="#19233C" stroke-width="4" />
    <path d="M51 63L93 105" stroke="#19233C" stroke-width="4" stroke-linecap="round" />
</svg>