<svg width="152" height="51" viewBox="0 0 152 51" fill="none" xmlns="http://www.w3.org/2000/svg">
<mask id="mask0_2704_1545" style="mask-type:luminance" maskUnits="userSpaceOnUse" x="0" y="0" width="137" height="51">
<path fill-rule="evenodd" clip-rule="evenodd" d="M0 0H136.349V50.14H0V0Z" fill="white"/>
</mask>
<g mask="url(#mask0_2704_1545)">
<path fill-rule="evenodd" clip-rule="evenodd" d="M125.246 36.3164C124.301 38.5432 121.637 40.294 118.701 40.294C114.056 40.294 110.5 37.0282 110.5 31.7306C110.5 26.4326 114.056 23.24 118.701 23.24C121.637 23.24 123.862 24.5153 125.246 26.5007V36.3164ZM125.246 15.2948C124.054 14.3736 121.557 13.3677 118.193 13.3677C107.235 13.3677 99.0349 20.7703 99.0349 31.7284C99.0349 42.7583 106.258 50.1609 117.216 50.1609C120.413 50.1609 124.031 48.8794 125.246 47.4799V49.2754H136.349V0L125.246 1.51814V15.2948Z" fill="#19233C"/>
<path fill-rule="evenodd" clip-rule="evenodd" d="M71.4347 27.1335C71.8709 24.5938 73.7571 21.1091 78.6203 21.1091C83.7728 21.1091 85.5871 24.666 85.8764 27.1335H71.4347ZM78.6198 12.4785C67.6607 12.4785 59.9685 20.6788 59.9685 30.8382C59.9685 42.2324 68.3149 50.1566 79.1275 50.1566C83.9945 50.1566 89.6086 49.2222 93.7851 45.7941L91.3403 36.6972C91.3403 36.6972 87.5905 41.5209 80.5061 41.5209C75.2817 41.5209 72.2329 37.6598 71.5797 34.395H96.5433V31.9994C96.5433 20.0975 88.9966 12.4785 78.6198 12.4785Z" fill="#19233C"/>
<path fill-rule="evenodd" clip-rule="evenodd" d="M19.6451 22.3486C22.6207 22.3486 24.8698 23.6549 26.2491 25.6867L33.5065 18.9386C31.4015 15.8176 26.6838 12.4795 19.1374 12.4795C8.17937 12.4795 -0.020874 19.8811 -0.020874 30.8391C-0.020874 41.8705 8.26066 50.1576 19.1374 50.1576C26.6838 50.1576 31.4015 46.7462 33.5065 43.6988L26.2491 36.8775C24.8698 38.837 22.6207 40.2885 19.6451 40.2885C15.0007 40.2885 11.4442 36.1367 11.4442 30.8391C11.4442 25.5415 15.0007 22.3486 19.6451 22.3486Z" fill="#19233C"/>
</g>
<path fill-rule="evenodd" clip-rule="evenodd" d="M46.7449 18.7809V12.8276L35.5685 14.3538V49.4049H46.7449V29.4738C51.4996 23.8879 57.703 24.2944 57.703 24.2944L59.8984 13.4819C54.1336 13.4819 49.0673 15.9508 46.7449 18.7809Z" fill="#19233C"/>
<path fill-rule="evenodd" clip-rule="evenodd" d="M145.278 37.5918C142.109 37.5918 139.435 40.2652 139.435 43.4358C139.435 46.6061 142.109 49.2798 145.278 49.2798C148.45 49.2798 151.123 46.6061 151.123 43.4358C151.123 40.2652 148.45 37.5918 145.278 37.5918Z" fill="#19233C"/>
</svg>
